<?xml version="1.0" encoding="UTF-8"?>
<!-- Generator: visioncortex VTracer 0.6.3 -->
<svg version="1.1" xmlns="http://www.w3.org/2000/svg" width="1280" height="1280">
<path d="M0 0 C422.4 0 844.8 0 1280 0 C1280 422.4 1280 844.8 1280 1280 C857.6 1280 435.2 1280 0 1280 C0 857.6 0 435.2 0 0 Z " fill="#FCFCFC" transform="translate(0,0)"/>
<path d="M0 0 C1.65 0.07 3.3 0.21 4.94 0.38 C10.69 0.87 16.43 1.14 22.2 1.33 C31.49 1.63 40.75 2.01 50 2.88 C50.77 2.94 51.54 3.01 52.33 3.08 C57.19 3.57 61.6 4.69 66.25 6.16 C69.3 7.09 72.37 7.88 75.46 8.65 C76.59 8.93 77.72 9.22 78.89 9.51 C81.2 10.08 83.52 10.65 85.84 11.22 C92.66 12.94 99.03 15.07 105.46 17.94 C107.65 18.85 109.69 19.51 112 20 C112 20.66 112 21.32 112 22 C112.52 22.1 113.03 22.21 113.56 22.31 C118.8 23.79 123.38 26.2 128 29 C128.78 29.3 129.55 29.61 130.35 29.92 C138.11 33.09 145.09 38.32 152 43 C153.37 43.89 153.37 43.89 154.76 44.8 C158.62 47.42 162.34 50.19 166.06 53 C166.76 53.52 167.45 54.04 168.17 54.58 C173.77 58.79 179.08 62.98 184 68 C185.22 69.2 186.45 70.4 187.67 71.6 C194.6 78.42 201.32 85.19 207.3 92.86 C208.89 94.95 208.89 94.95 210.45 96.42 C212.73 98.74 214.57 101.33 216.5 103.94 C217.27 104.98 218.05 106.02 218.84 107.09 C219.56 108.05 220.27 109.01 221 110 C221.59 110.72 222.18 111.45 222.78 112.19 C224 114 224 114 224 117 C224.66 117 225.32 117 226 117 C228.18 119.37 229.24 121.57 230.5 124.56 C231.7 127.88 231.7 127.88 233.5 129.5 C235.34 131.34 236.09 133.32 237.05 135.71 C238.29 138.7 239.64 141.63 241 144.56 C241.5 145.64 241.99 146.71 242.5 147.82 C243.95 150.9 245.47 153.95 247 157 C248.99 161.39 250.64 165.79 252.12 170.38 C253.16 173.47 254.3 176.51 255.44 179.56 C260.67 194.13 263.69 209.36 265.62 224.69 C265.76 225.73 265.89 226.78 266.03 227.85 C266.89 235.08 267.25 242.1 267.01 249.37 C266.8 251.98 266.8 251.98 268 254 C268.31 261.08 268.14 268 267 275 C266.87 276.92 266.74 278.83 266.62 280.75 C266.16 287.28 265.18 293.67 264.1 300.11 C263.98 300.87 263.85 301.64 263.72 302.42 C263.59 303.18 263.47 303.93 263.34 304.71 C263 307.02 262.79 309.32 262.59 311.64 C262.16 315.84 260.77 319.15 259 323 C258.31 325.36 257.66 327.74 257.06 330.12 C256.72 331.44 256.38 332.75 256.04 334.05 C255.87 334.71 255.7 335.36 255.52 336.04 C254.7 339.12 253.83 342.19 252.94 345.25 C252.64 346.29 252.34 347.32 252.03 348.39 C250.98 351.05 250.01 352.06 248 354 C247.11 356.16 247.11 356.16 246.5 358.5 C245.53 361.95 244.5 363.5 242 366 C241.33 367.94 241.33 367.94 241 370 C240.38 373.4 239.4 374.6 237 377 C236.15 379.13 236.15 379.13 235.56 381.44 C234.37 385.32 233.04 387.25 230 390 C229.31 391.66 228.64 393.32 228 395 C227 396 226 397 225 398 C224.5 398.99 224.01 399.98 223.5 401 C222.14 403.71 221.12 404.97 219 407 C218.59 407.72 218.17 408.44 217.75 409.18 C215.62 412.6 213.14 415.53 210.5 418.56 C209.97 419.18 209.44 419.79 208.89 420.42 C179.93 453.72 179.93 453.72 162.64 463.95 C160.45 465.35 158.8 467.14 157 469 C155.35 470.02 153.68 471.03 152 472 C151.34 472.66 150.68 473.32 150 474 C149.01 474.12 148.02 474.25 147 474.38 C146.01 474.58 145.02 474.79 144 475 C143.33 476.33 142.67 477.67 142 479 C140.32 480.13 140.32 480.13 138.36 481.01 C137.64 481.34 136.93 481.67 136.19 482.01 C135.47 482.34 134.74 482.66 134 483 C132.72 483.64 131.45 484.28 130.18 484.93 C126.8 486.63 123.41 488.32 120.02 490 C118.72 490.64 117.43 491.29 116.13 491.93 C109.73 495.12 104.2 497.72 97 498 C96.67 498.99 96.34 499.98 96 501 C94.88 501.18 93.76 501.36 92.61 501.55 C91.13 501.8 89.66 502.06 88.19 502.31 C87.45 502.43 86.71 502.55 85.95 502.67 C81.98 503.37 79.64 503.93 77 507 C74.93 507.27 72.86 507.53 70.78 507.69 C67.53 508.05 64.43 508.72 61.25 509.44 C43.97 513.23 26.78 514.23 9.12 514.25 C8.42 514.25 7.71 514.25 6.98 514.25 C-31.42 514.19 -68.73 505.46 -102.97 488.03 C-104.45 487.28 -105.94 486.54 -107.43 485.82 C-119.06 480.13 -119.06 480.13 -123 477 C-123 476.34 -123 475.68 -123 475 C-124.18 474.69 -124.18 474.69 -125.38 474.38 C-132.2 471.79 -137.88 468.17 -143 463 C-144.83 461.59 -146.69 460.22 -148.56 458.88 C-149.51 458.19 -150.46 457.51 -151.44 456.8 C-153.28 455.51 -155.13 454.25 -157 453 C-157 452.34 -157 451.68 -157 451 C-157.55 450.77 -158.1 450.55 -158.67 450.32 C-161.71 448.6 -163.85 446.41 -166.32 443.94 C-166.83 443.44 -167.34 442.93 -167.86 442.41 C-168.93 441.35 -170 440.27 -171.06 439.2 C-172.66 437.59 -174.26 436 -175.87 434.4 C-189.98 420.31 -202.27 404.44 -212 387 C-212.47 386.23 -212.94 385.46 -213.43 384.66 C-215.07 381.87 -216.51 379.03 -217.94 376.12 C-219.57 372.81 -221.2 369.61 -223.19 366.5 C-225.75 361.56 -226.83 356.41 -228 351 C-228.66 351 -229.32 351 -230 351 C-230.26 350.13 -230.26 350.13 -230.52 349.23 C-231.93 344.46 -233.41 339.72 -235 335 C-237.45 327.7 -239.77 320.61 -241 313 C-241.3 311.48 -241.6 309.97 -241.9 308.45 C-245.42 290.88 -247.13 273.84 -247.69 255.94 C-247.71 255.16 -247.74 254.38 -247.76 253.58 C-247.83 251.35 -247.89 249.13 -247.95 246.9 C-247.98 245.6 -248.02 244.29 -248.05 242.95 C-248 240 -248 240 -247 239 C-246.69 236.76 -246.43 234.5 -246.19 232.25 C-243.15 206.45 -237.17 179.57 -226 156 C-225.17 154.15 -224.33 152.29 -223.5 150.44 C-221.73 146.56 -219.91 142.72 -217.97 138.92 C-217.28 137.56 -216.62 136.18 -215.97 134.8 C-215.63 134.08 -215.29 133.36 -214.94 132.62 C-214.64 131.98 -214.34 131.33 -214.03 130.66 C-213 129 -213 129 -210 127 C-209.1 125.15 -209.1 125.15 -208.5 123.06 C-207.51 119.89 -206.42 118.26 -204 116 C-203.5 115.18 -203.01 114.35 -202.5 113.5 C-201.14 111.24 -199.84 109.84 -198 108 C-197.38 106.95 -197.38 106.95 -196.75 105.88 C-185.25 86.98 -166.41 69.41 -149 56 C-148.19 55.35 -147.38 54.69 -146.54 54.02 C-143.91 51.93 -141.22 49.92 -138.5 47.94 C-137.58 47.27 -136.66 46.59 -135.72 45.9 C-133.2 44.14 -130.64 42.57 -128 41 C-126.82 40.16 -125.66 39.31 -124.5 38.44 C-121.77 36.45 -119.16 35.23 -116 34 C-115.57 33.5 -115.13 33.01 -114.69 32.5 C-112.72 30.75 -111.55 30.59 -109 30.06 C-105.7 29.45 -105.7 29.45 -103.56 26.94 C-102 25 -102 25 -99.9 24.66 C-98.29 24.56 -96.67 24.49 -95.06 24.47 C-94.38 24.31 -93.7 24.16 -93 24 C-92.31 22.68 -91.64 21.35 -91 20 C-88.91 19.49 -86.82 19.01 -84.7 18.63 C-80.58 17.67 -76.85 15.93 -72.99 14.22 C-67.22 11.87 -61.17 10.53 -55.12 9.06 C-50.84 8.02 -46.63 6.94 -42.5 5.38 C-37.05 3.43 -31.29 3.05 -25.57 2.43 C-22.24 2.11 -22.24 2.11 -20.03 1.48 C-17.91 0.98 -16.1 0.9 -13.93 0.94 C-12.8 0.95 -12.8 0.95 -11.65 0.96 C-10.88 0.97 -10.11 0.99 -9.31 1 C-6.54 1.05 -3.78 1.05 -1 1 C-0.67 0.67 -0.34 0.34 0 0 Z " fill="#FCFCFC" transform="translate(629,100)"/>
<path d="M0 0 C2.81 0.01 5.62 0 8.42 -0.01 C37.71 -0.02 37.71 -0.02 43.25 3.13 C45.26 3.48 45.26 3.48 47.43 3.57 C58.96 4.55 70.14 6.89 81.19 10.24 C83.66 10.96 86.04 11.53 88.56 12.01 C98.4 14.06 108.06 18.11 117.25 22.13 C118.44 22.63 119.64 23.12 120.87 23.63 C124.25 25.13 124.25 25.13 126.81 26.76 C129.24 28.32 129.24 28.32 132.37 28.63 C135.25 29.13 135.25 29.13 136.65 30.54 C138.53 32.41 140.23 33.14 142.68 34.13 C145.93 35.5 148.44 37 151.25 39.13 C152.26 39.46 153.27 39.79 154.31 40.13 C157.33 41.16 158.12 41.92 160.25 44.13 C162.24 45.15 164.24 46.15 166.25 47.13 C173.43 51.29 173.43 51.29 175.59 53.51 C178.02 55.88 180.83 57.7 183.62 59.63 C188.79 63.27 193.78 67.06 198.62 71.13 C199.47 71.83 199.47 71.83 200.33 72.55 C201.68 73.7 202.97 74.91 204.25 76.13 C204.25 76.79 204.25 77.45 204.25 78.13 C204.82 78.39 205.39 78.64 205.98 78.9 C212.62 82.5 217.93 88.65 222.74 94.37 C224.22 96.16 224.22 96.16 225.94 97.74 C227.25 99.13 227.25 99.13 227.25 101.13 C228.24 101.46 229.23 101.79 230.25 102.13 C235.25 107.6 235.25 107.6 235.25 110.13 C236.24 110.46 237.23 110.79 238.25 111.13 C239.93 113.2 239.93 113.2 241.68 115.82 C242.3 116.72 242.91 117.62 243.54 118.55 C244.86 120.55 246.18 122.56 247.5 124.57 C249.07 127.05 249.07 127.05 250.7 128.56 C252.32 130.2 253.49 131.85 254.73 133.79 C255.19 134.5 255.65 135.2 256.12 135.93 C256.59 136.68 257.07 137.42 257.56 138.19 C258.05 138.96 258.54 139.73 259.05 140.53 C260.46 142.73 261.85 144.93 263.25 147.13 C263.83 148.05 264.42 148.97 265.02 149.91 C269.26 156.75 272.74 163.96 276.28 171.17 C278.17 175 280.15 178.79 282.12 182.58 C283.24 185.12 283.71 187.42 284.25 190.13 C284.86 190.98 285.48 191.82 286.12 192.69 C288.8 196.43 289.5 200.59 290.44 205.03 C291.37 208.59 292.78 211.76 294.25 215.13 C300.93 234.59 305.77 256.32 306.81 276.88 C306.88 278.26 306.95 279.63 307.03 281.01 C307.06 281.69 307.1 282.38 307.13 283.08 C307.24 285.06 307.38 287.03 307.53 289.01 C310.64 331.94 310.64 331.94 305.25 348.13 C305.22 351.2 305.31 354.25 305.41 357.32 C305.25 360.13 305.25 360.13 303.25 363.13 C302.71 365.08 302.71 365.08 302.39 367.24 C302.24 368.07 302.1 368.9 301.95 369.75 C301.73 371.08 301.73 371.08 301.5 372.44 C300.05 380.5 298.27 388.41 296.12 396.32 C295.87 397.27 295.61 398.22 295.35 399.2 C295.11 400.08 294.86 400.95 294.61 401.86 C294.4 402.64 294.18 403.42 293.96 404.22 C293.25 406.13 293.25 406.13 291.25 408.13 C290.16 411.64 289.26 415.19 288.34 418.75 C287.31 421.92 286.28 423.58 284.25 426.13 C283.37 428.3 283.37 428.3 282.75 430.57 C281.63 434.13 280.24 436.97 278.25 440.13 C277.71 441.35 277.19 442.58 276.68 443.82 C275.25 447.13 275.25 447.13 273.25 449.13 C272.74 450.57 272.29 452.03 271.87 453.51 C270.64 457.42 269.25 459.32 266.25 462.13 C265.92 463.12 265.59 464.11 265.25 465.13 C264.12 468.5 262.8 469.73 260.25 472.13 C258.73 474.4 257.45 476.68 256.31 479.16 C255.98 479.87 255.65 480.58 255.31 481.32 C255.01 481.99 254.71 482.67 254.41 483.36 C252.98 485.54 251.57 486.04 249.25 487.13 C248.23 489.12 247.23 491.12 246.25 493.13 C244.07 496.26 241.66 499.19 239.25 502.13 C238.05 503.61 238.05 503.61 236.82 505.12 C230.6 512.66 223.9 519.66 217 526.57 C216.16 527.41 215.32 528.25 214.45 529.11 C204.97 538.51 194.87 546.74 184.16 554.67 C183.15 555.43 183.15 555.43 182.12 556.19 C181.46 556.68 180.8 557.17 180.12 557.68 C178.37 559.03 176.76 560.46 175.12 561.94 C171.97 564.34 170.06 564.52 166.25 565.13 C165.94 565.76 165.63 566.38 165.32 567.03 C164 569.6 162.98 570.05 160.37 571.19 C158.08 572.25 156.24 573.13 154.25 574.69 C151.18 576.9 147.81 577.88 144.25 579.13 C144.66 581.21 144.66 581.21 146.25 583.13 C148.16 583.39 150.07 583.65 151.99 583.84 C155.68 584.31 159.18 585.35 162.75 586.38 C163.52 586.6 164.3 586.82 165.1 587.05 C176.62 590.35 188.01 593.93 199.25 598.13 C200.8 598.7 202.35 599.26 203.9 599.83 C205.6 600.45 207.3 601.07 209 601.69 C209.8 601.99 210.6 602.28 211.43 602.58 C215.02 603.9 218.57 605.24 222.08 606.77 C224.46 607.79 226.69 608.66 229.18 609.32 C230.19 609.59 231.2 609.85 232.25 610.13 C232.25 610.79 232.25 611.45 232.25 612.13 C235.06 613.33 237.78 614.27 240.75 615.07 C244.06 616.07 246.33 617.31 249.25 619.13 C250.94 619.86 252.64 620.59 254.34 621.3 C257.35 622.61 260.26 624.09 263.18 625.57 C264.42 626.19 265.65 626.81 266.89 627.44 C267.99 627.99 269.1 628.55 270.25 629.13 C271.64 629.82 273.04 630.51 274.43 631.19 C287.02 637.5 287.02 637.5 292.68 641.44 C295.05 643 296.57 643.48 299.25 644.13 C300.25 645.13 301.25 646.13 302.25 647.13 C304.24 648.15 306.24 649.15 308.25 650.13 C312.89 652.85 317.3 655.85 321.66 659.01 C324.72 661.18 327.84 662.94 331.25 664.51 C334.55 666.3 336.63 668.45 339.25 671.13 C341.41 672.43 341.41 672.43 343.25 673.13 C343.25 673.79 343.25 674.45 343.25 675.13 C344.09 675.34 344.94 675.54 345.81 675.76 C349.55 677.25 351.8 679.09 354.73 681.79 C356.22 683.23 356.22 683.23 358.25 684.13 C358.25 684.79 358.25 685.45 358.25 686.13 C359.01 686.42 359.77 686.71 360.56 687.01 C363.25 688.13 363.25 688.13 366.25 690.13 C366.25 690.79 366.25 691.45 366.25 692.13 C366.99 692.4 367.73 692.67 368.5 692.94 C371.14 694.08 373.1 695.22 375.25 697.13 C375.25 697.79 375.25 698.45 375.25 699.13 C375.78 699.35 376.31 699.56 376.86 699.78 C380.12 701.63 382.67 704.13 385.37 706.69 C389.01 710.32 389.01 710.32 393.25 713.13 C393.25 713.79 393.25 714.45 393.25 715.13 C393.82 715.39 394.4 715.65 394.99 715.92 C397.42 717.23 399.25 718.73 401.31 720.57 C401.98 721.16 402.65 721.76 403.34 722.38 C403.97 722.96 404.6 723.53 405.25 724.13 C405.82 724.66 406.4 725.18 406.99 725.73 C408.25 727.13 408.25 727.13 408.25 729.13 C408.8 729.36 409.35 729.58 409.92 729.82 C412.93 731.52 415.06 733.68 417.5 736.13 C418.39 737.02 419.28 737.9 420.2 738.82 C422.25 741.13 422.25 741.13 422.25 743.13 C423.06 743.44 423.06 743.44 423.89 743.76 C427.15 745.66 429.44 748.29 431.93 751.07 C432.46 751.65 432.99 752.22 433.53 752.82 C437.61 757.33 441.46 762 445.26 766.75 C447.02 768.86 448.83 770.79 450.81 772.69 C451.61 773.5 452.42 774.3 453.25 775.13 C453.25 775.79 453.25 776.45 453.25 777.13 C454.24 777.46 455.23 777.79 456.25 778.13 C457.2 779.49 458.14 780.86 459.02 782.26 C460.99 785.26 463.24 788.02 465.45 790.83 C467.11 792.95 468.71 795.09 470.31 797.26 C472.2 799.81 474.18 802.21 476.31 804.57 C479.08 807.73 480.94 811.09 482.89 814.8 C484.83 818.14 487.25 821.04 489.67 824.05 C491.58 826.58 492.89 829.28 494.25 832.13 C495.24 832.63 495.24 832.63 496.25 833.13 C497.24 834.79 498.17 836.48 499.06 838.19 C501.26 842.34 503.57 846.35 506.1 850.31 C507.91 853.19 509.58 856.16 511.25 859.13 C511.76 860.04 511.76 860.04 512.29 860.97 C522.42 878.99 532.72 897.59 540.32 916.85 C541.19 919.2 541.19 919.2 542.68 921.38 C544.34 924.3 545.28 927.07 546.29 930.25 C547.55 934.04 548.92 937.77 550.31 941.51 C550.69 942.56 550.69 942.56 551.09 943.63 C552.25 946.74 553.4 949.36 555.25 952.13 C556.34 955.69 557.29 959.28 558.25 962.88 C559.11 966.23 559.11 966.23 561.25 969.13 C561.93 971.59 562.55 974.02 563.12 976.51 C564.64 982.85 566.39 989.06 568.41 995.26 C569.25 998.13 569.25 998.13 569.73 1001.25 C570.08 1004.04 570.08 1004.04 571.21 1006 C572.37 1008.39 572.81 1010.5 573.25 1013.12 C573.49 1014.55 573.49 1014.55 573.75 1016.01 C573.99 1017.49 573.99 1017.49 574.25 1019.01 C575.24 1024.91 576.34 1030.45 578.25 1036.13 C578.99 1039.66 579.59 1043.2 580.18 1046.76 C580.44 1048.29 580.44 1048.29 580.71 1049.86 C581.06 1051.96 581.41 1054.07 581.76 1056.17 C582.06 1057.99 582.36 1059.81 582.67 1061.62 C584.89 1074.59 586.12 1087.62 587.24 1100.71 C587.3 1101.4 587.36 1102.1 587.42 1102.81 C587.59 1104.71 587.75 1106.61 587.9 1108.51 C588.14 1111 588.43 1113.49 588.77 1115.97 C589.72 1123.4 589.55 1130.93 589.6 1138.4 C589.61 1140.35 589.64 1142.3 589.68 1144.25 C589.73 1147.08 589.75 1149.91 589.77 1152.74 C589.79 1153.6 589.81 1154.47 589.84 1155.37 C589.82 1159.85 589.78 1161.51 586.73 1165.01 C585.91 1165.71 585.09 1166.41 584.25 1167.13 C583.83 1170.34 583.83 1170.34 584.25 1173.13 C582.61 1173.53 582.61 1173.53 580.93 1173.94 C577.35 1174.75 577.35 1174.75 575.9 1176.65 C572.22 1179.94 565.95 1179.12 561.25 1179.13 C554.64 1178.62 549.22 1175.38 544.25 1171.13 C542.37 1168.26 542.37 1168.26 541.25 1165.13 C540.49 1163.54 540.49 1163.54 539.71 1161.91 C537.28 1155.41 537.71 1148.36 537.62 1141.51 C537.58 1139.41 537.54 1137.31 537.5 1135.22 C537.46 1133.32 537.43 1131.43 537.4 1129.53 C537.25 1126.31 536.81 1123.3 536.25 1120.13 C536.18 1116.83 536.25 1113.55 536.31 1110.25 C536.27 1099.18 534.6 1088.33 532.75 1077.44 C530.03 1061.39 530.03 1061.39 529.57 1054.07 C529.33 1051.81 529.33 1051.81 527.25 1049.13 C526.74 1046.46 526.31 1043.82 525.93 1041.13 C524.76 1033.39 523.02 1025.94 520.87 1018.41 C519.24 1012.6 519.24 1012.6 519.29 1009.27 C519.5 1007.05 519.5 1007.05 517.84 1005.76 C515.36 1003.22 515.37 1000.45 514.81 997.01 C513.87 991.72 512.62 987.08 510.22 982.26 C508.74 979.02 507.87 975.63 506.96 972.2 C506.35 969.94 506.35 969.94 504.25 968.13 C503.78 966.2 503.32 964.27 502.88 962.34 C502.23 960.07 501.33 958.25 500.18 956.19 C497.91 951.95 497.47 947.89 497.25 943.13 C496.59 943.13 495.93 943.13 495.25 943.13 C493.19 939.2 491.56 935.36 490.25 931.13 C489.92 930.14 489.59 929.15 489.25 928.13 C488.59 928.13 487.93 928.13 487.25 928.13 C486.82 926.14 486.4 924.16 485.98 922.17 C485.13 919.81 484 918.88 482.25 917.13 C481.33 914.97 481.33 914.97 480.62 912.63 C480.38 911.86 480.14 911.08 479.89 910.29 C479.68 909.58 479.47 908.86 479.25 908.13 C478.92 907.14 478.59 906.15 478.25 905.13 C477.59 905.13 476.93 905.13 476.25 905.13 C476.06 904.59 475.88 904.04 475.69 903.49 C475.44 902.77 475.19 902.05 474.93 901.32 C474.69 900.61 474.45 899.9 474.19 899.17 C473.36 897.07 473.36 897.07 471.73 895.62 C469.54 893.43 469.01 890.97 468.09 888.07 C467.14 885.88 465.94 884.78 464.25 883.13 C463.21 880.81 462.22 878.48 461.25 876.13 C459.53 872.94 457.5 870.13 455.31 867.26 C452.59 863.69 450.42 860.05 448.25 856.13 C445.38 851.52 445.38 851.52 441.25 848.13 C440.6 846.51 439.96 844.89 439.33 843.26 C437.47 839.61 434.74 836.65 432.09 833.56 C430.25 831.14 429.33 828.94 428.25 826.13 C426.92 825.45 425.59 824.78 424.25 824.13 C421.25 819.84 421.25 819.84 421.25 817.13 C420.59 817.13 419.93 817.13 419.25 817.13 C418.09 815.8 418.09 815.8 416.75 813.88 C414.02 810.12 411.15 806.51 408.18 802.94 C407.37 801.96 406.55 800.98 405.71 799.96 C402.47 796.24 398.99 792.85 395.43 789.44 C393.25 787.13 393.25 787.13 393.25 785.13 C392.65 784.87 392.05 784.6 391.44 784.33 C389.17 783.09 387.86 781.89 386.14 779.97 C385.58 779.35 385.01 778.72 384.42 778.08 C383.83 777.41 383.23 776.75 382.62 776.07 C377.64 770.6 372.59 765.54 366.94 760.77 C366.38 760.23 365.82 759.69 365.25 759.13 C365.25 758.47 365.25 757.81 365.25 757.13 C364.65 756.86 364.06 756.59 363.44 756.3 C361.31 755.16 359.83 754.01 358.08 752.35 C357.52 751.81 356.95 751.28 356.37 750.74 C355.79 750.19 355.22 749.64 354.62 749.07 C350.75 745.16 350.75 745.16 346.25 742.13 C346.25 741.47 346.25 740.81 346.25 740.13 C345.65 739.84 345.05 739.55 344.43 739.26 C342.25 738.13 342.25 738.13 339.25 736.13 C339.25 735.47 339.25 734.81 339.25 734.13 C338.52 733.88 337.8 733.64 337.06 733.38 C333.96 732 331.82 730.32 329.25 728.13 C328.32 727.43 327.39 726.73 326.43 726.01 C325.71 725.39 324.99 724.77 324.25 724.13 C324.25 723.47 324.25 722.81 324.25 722.13 C323.52 721.88 322.8 721.64 322.06 721.38 C318.99 720.02 316.83 718.24 314.25 716.13 C313.26 715.8 312.27 715.47 311.25 715.13 C310.92 714.47 310.59 713.81 310.25 713.13 C308.5 712.41 306.76 711.68 305.01 710.97 C302.57 709.81 301.09 708.09 299.25 706.13 C294.85 702.65 290.15 699.83 285.25 697.13 C285.25 696.47 285.25 695.81 285.25 695.13 C284.34 694.86 283.43 694.59 282.5 694.32 C279.25 693.13 279.25 693.13 277.31 691.63 C275.17 689.89 275.17 689.89 271.75 689.19 C267.94 688.04 266.93 686.9 264.25 684.13 C263.04 683.57 261.8 683.05 260.56 682.57 C258.92 681.86 258.92 681.86 257.25 681.13 C256.92 680.14 256.59 679.15 256.25 678.13 C254.39 678.01 254.39 678.01 252.5 677.88 C248.38 677.38 247.13 676.1 244.25 673.13 C242.34 672.52 242.34 672.52 240.25 672.13 C236.38 671.33 235.04 669.92 232.25 667.13 C230.22 666.5 228.24 666.08 226.15 665.72 C224.25 665.13 224.25 665.13 222.82 663.69 C220.77 661.66 218.85 661.1 216.12 660.19 C211.79 658.7 207.65 657.03 203.49 655.13 C200.28 653.7 197.03 652.41 193.76 651.13 C192.13 650.48 190.5 649.82 188.88 649.13 C182.82 646.59 176.69 644.76 170.35 643.06 C167.25 642.13 167.25 642.13 165.21 641.11 C162.63 639.82 160.05 639.28 157.25 638.63 C153.6 637.79 150.56 636.83 147.25 635.13 C145.92 634.77 144.59 634.46 143.25 634.19 C139.8 633.48 136.4 632.66 133 631.76 C126.37 630.07 119.66 628.85 112.94 627.61 C108.38 626.76 103.9 625.83 99.43 624.57 C90.54 622.23 81.26 621.5 72.14 620.46 C69.64 620.18 67.14 619.88 64.64 619.57 C60.18 619.03 55.72 618.57 51.25 618.13 C50.38 618.04 49.51 617.96 48.62 617.87 C31.98 616.27 15.33 615.8 -1.38 615.44 C-3.03 615.41 -3.03 615.41 -4.71 615.37 C-7.84 615.3 -10.97 615.24 -14.11 615.18 C-15.07 615.16 -16.02 615.14 -17.01 615.12 C-17.89 615.1 -18.76 615.09 -19.66 615.08 C-20.43 615.06 -21.2 615.05 -21.99 615.03 C-23.78 614.94 -23.78 614.94 -24.75 616.13 C-27.29 616.36 -29.8 616.53 -32.33 616.67 C-33.1 616.71 -33.86 616.75 -34.65 616.8 C-36.27 616.89 -37.89 616.97 -39.51 617.06 C-41.98 617.19 -44.45 617.33 -46.92 617.47 C-48.5 617.56 -50.07 617.64 -51.65 617.73 C-52.38 617.77 -53.12 617.81 -53.88 617.85 C-56.79 618 -59.67 618.13 -62.58 618.07 C-64.96 617.99 -64.96 617.99 -67.65 619.53 C-73.5 622.23 -80.17 622.17 -86.5 622.69 C-89.13 622.91 -91.74 623.15 -94.36 623.38 C-96.1 623.53 -96.1 623.53 -97.86 623.68 C-100.94 623.95 -100.94 623.95 -103.75 626.13 C-105.98 626.66 -105.98 626.66 -108.59 627.06 C-109.54 627.21 -110.5 627.37 -111.49 627.53 C-113.01 627.76 -113.01 627.76 -114.57 628.01 C-122.6 629.31 -130.26 630.88 -138.01 633.4 C-140.75 634.13 -140.75 634.13 -143.43 634.05 C-145.81 633.86 -145.81 633.86 -147.1 635.51 C-149.66 638.01 -152.86 638.34 -156.25 639.07 C-162.17 640.44 -167.8 642.07 -173.47 644.26 C-175.41 645 -177.39 645.64 -179.38 646.26 C-181.92 646.88 -181.92 646.88 -182.75 649.13 C-184.64 649.5 -186.54 649.78 -188.44 650.01 C-193.6 650.77 -196.48 652.12 -200.75 655.13 C-202.78 655.47 -202.78 655.47 -204.94 655.63 C-206.2 655.8 -207.46 655.96 -208.75 656.13 C-209.47 657.09 -209.47 657.09 -210.19 658.07 C-212.46 661.06 -215 661.01 -218.6 661.54 C-221.16 662.24 -221.91 663.27 -223.75 665.13 C-226.28 666.19 -226.28 666.19 -229.13 667.13 C-233.03 668.42 -236.27 669.96 -239.75 672.13 C-241.41 672.84 -243.06 673.55 -244.72 674.25 C-247.18 675.31 -249.59 676.46 -252 677.63 C-252.83 678.03 -253.66 678.43 -254.52 678.85 C-256.78 680.01 -256.78 680.01 -258.33 681.73 C-259.75 683.13 -259.75 683.13 -263.25 684.07 C-266.79 684.76 -266.79 684.76 -268.25 687.13 C-270.47 690.09 -273.27 690.15 -276.75 691.13 C-278.13 692.42 -279.46 693.75 -280.75 695.13 C-282.41 695.82 -284.08 696.49 -285.75 697.13 C-286.23 697.6 -286.7 698.08 -287.19 698.57 C-289.38 700.76 -292 701.75 -294.75 703.13 C-295.25 703.63 -295.74 704.12 -296.25 704.63 C-298.41 706.79 -301.04 707.77 -303.75 709.13 C-304.77 710.11 -305.78 711.11 -306.75 712.13 C-307.81 712.75 -307.81 712.75 -308.88 713.38 C-312.28 715.45 -315.32 717.85 -318.45 720.32 C-320.45 721.89 -322.46 723.42 -324.5 724.94 C-328.15 727.67 -331.77 730.42 -335.38 733.19 C-335.92 733.6 -336.46 734.02 -337.01 734.44 C-341.79 738.11 -346.54 741.8 -350.75 746.13 C-351.83 747.08 -352.91 748.01 -354 748.94 C-364.46 758.07 -374.43 767.71 -384.25 777.51 C-385.09 778.34 -385.93 779.17 -386.79 780.03 C-391.1 784.34 -395.25 788.73 -399.23 793.36 C-401.31 795.77 -403.47 798.1 -405.63 800.44 C-412.93 808.46 -419.59 816.82 -425.91 825.63 C-428.36 828.95 -431.02 832.04 -433.75 835.13 C-436.79 838.62 -439.43 842.12 -441.75 846.13 C-442.27 846.79 -442.79 847.45 -443.32 848.13 C-444.88 850.11 -444.88 850.11 -445.69 852.69 C-446.75 855.13 -446.75 855.13 -448.69 856.57 C-451.49 858.69 -452.28 860.94 -453.75 864.13 C-454.57 865.72 -455.41 867.31 -456.25 868.88 C-456.66 869.64 -457.06 870.4 -457.47 871.18 C-458.75 873.13 -458.75 873.13 -461.75 875.13 C-462.22 876.77 -462.22 876.77 -462.69 878.44 C-463.75 882.13 -463.75 882.13 -465.52 884.31 C-468.4 887.94 -470.39 891.84 -472.5 895.94 C-472.92 896.73 -473.33 897.52 -473.75 898.33 C-474.76 900.26 -475.76 902.2 -476.75 904.13 C-477.41 904.13 -478.07 904.13 -478.75 904.13 C-478.86 904.77 -478.97 905.41 -479.09 906.06 C-479.32 907.3 -479.32 907.3 -479.57 908.57 C-479.79 909.8 -479.79 909.8 -480.02 911.06 C-480.27 911.75 -480.51 912.43 -480.75 913.13 C-481.74 913.46 -482.73 913.79 -483.75 914.13 C-484.45 916.14 -484.45 916.14 -484.75 918.51 C-485.33 922.21 -486.1 923.55 -488.75 926.13 C-489.77 928.34 -489.77 928.34 -490.57 930.88 C-492.24 935.7 -494.01 940.45 -495.88 945.19 C-496.13 945.85 -496.39 946.5 -496.65 947.18 C-497.76 949.98 -498.6 951.98 -500.75 954.13 C-501.29 956.13 -501.29 956.13 -501.63 958.38 C-502.29 961.67 -502.82 963.22 -504.75 966.07 C-507.1 969.66 -507.58 972.57 -508.16 976.76 C-508.75 979.13 -508.75 979.13 -510.22 980.99 C-512.32 983.92 -512.67 986.66 -513.32 990.19 C-514.55 996.82 -514.55 996.82 -516.75 1000.13 C-517.45 1002.51 -518.06 1004.85 -518.63 1007.26 C-518.8 1007.96 -518.97 1008.67 -519.15 1009.4 C-519.69 1011.64 -520.22 1013.89 -520.75 1016.13 C-521.09 1017.53 -521.43 1018.93 -521.76 1020.33 C-522.61 1023.88 -523.44 1027.44 -524.26 1030.99 C-524.58 1032.39 -524.91 1033.78 -525.24 1035.18 C-531.53 1061.85 -535.16 1088.34 -536.36 1115.69 C-536.57 1120 -537.02 1124.13 -537.82 1128.38 C-538.74 1133.53 -538.76 1138.41 -538.64 1143.62 C-538.21 1162.32 -538.21 1162.32 -543.75 1170.13 C-545.7 1171.94 -547.36 1172.88 -549.75 1174.13 C-550.16 1174.8 -550.57 1175.47 -550.99 1176.17 C-553.64 1179.12 -555.99 1178.84 -559.88 1179.07 C-567.55 1179.47 -573.36 1178.39 -579.75 1174.13 C-579.75 1173.47 -579.75 1172.81 -579.75 1172.13 C-580.33 1171.9 -580.91 1171.68 -581.5 1171.44 C-584.49 1169.7 -585.91 1168.06 -587.75 1165.13 C-589.24 1157.31 -588.91 1149.31 -588.88 1141.38 C-588.88 1140.64 -588.88 1139.9 -588.87 1139.13 C-588.85 1128.52 -588.71 1117.92 -588.38 1107.32 C-588.35 1106.16 -588.32 1105 -588.29 1103.8 C-588.23 1102.19 -588.23 1102.19 -588.17 1100.55 C-588.12 1099.15 -588.12 1099.15 -588.07 1097.73 C-587.73 1094.92 -586.82 1092.74 -585.75 1090.13 C-585.72 1087.8 -585.71 1085.46 -585.75 1083.13 C-585.42 1082.47 -585.09 1081.81 -584.75 1081.13 C-584.45 1078.93 -584.19 1076.72 -583.94 1074.51 C-578.72 1030.09 -578.72 1030.09 -574.75 1026.13 C-574.26 1023.67 -573.81 1021.22 -573.38 1018.76 C-572.33 1012.9 -571.08 1007.18 -569.4 1001.46 C-568.73 999.03 -568.25 996.6 -567.75 994.13 C-566.75 991.13 -566.75 991.13 -565.75 988.13 C-564.24 982.71 -564.24 982.71 -563.75 977.13 C-563.28 976.66 -562.8 976.19 -562.31 975.7 C-560.41 973.79 -560.24 972.64 -559.82 970.01 C-559 965.76 -557.54 962.23 -555.7 958.34 C-554.76 956.13 -554.16 954.03 -553.63 951.69 C-552.75 948.13 -552.75 948.13 -550.75 946.13 C-550.11 944.05 -549.73 941.98 -549.32 939.84 C-549.18 939.07 -549.03 938.3 -548.88 937.51 C-548.74 936.73 -548.6 935.95 -548.45 935.15 C-547.75 933.13 -547.75 933.13 -544.75 931.13 C-544.1 929.18 -544.1 929.18 -543.82 926.94 C-543.08 923.13 -541.9 920.33 -539.82 917.01 C-538.57 914.8 -537.67 912.56 -536.75 910.19 C-535.01 905.68 -532.98 901.42 -530.75 897.13 C-529.98 895.59 -529.21 894.05 -528.44 892.51 C-528.03 891.68 -527.61 890.85 -527.18 889.99 C-526.11 887.84 -525.04 885.68 -523.99 883.52 C-523.68 882.9 -523.37 882.27 -523.05 881.63 C-522.17 879.83 -521.29 878.03 -520.4 876.23 C-519.01 873.62 -517.56 871.45 -515.75 869.13 C-515.26 868.12 -514.76 867.11 -514.25 866.07 C-512.75 863.13 -512.75 863.13 -511.19 861.69 C-509.45 860.03 -509.45 860.03 -508.82 856.69 C-507.67 852.83 -506.56 851.85 -503.75 849.13 C-502.73 846.81 -501.73 844.47 -500.75 842.13 C-499.77 841.11 -498.78 840.11 -497.75 839.13 C-497.42 838.28 -497.09 837.44 -496.75 836.57 C-495.75 834.13 -495.75 834.13 -492.75 832.13 C-492.29 830.4 -492.29 830.4 -491.82 828.63 C-490.75 825.13 -490.75 825.13 -488.82 824.07 C-488.14 823.76 -487.46 823.45 -486.75 823.13 C-485.72 821.15 -484.73 819.14 -483.75 817.13 C-478.99 809.73 -473.52 802.8 -468.1 795.86 C-466.73 794.09 -465.36 792.32 -463.99 790.54 C-459.15 784.3 -454.2 778.29 -448.86 772.48 C-446.78 770.16 -444.86 767.77 -442.94 765.32 C-439.2 760.57 -435.17 756.16 -431.05 751.75 C-428.45 748.98 -425.92 746.19 -423.5 743.26 C-420.83 740.07 -417.78 737.44 -414.63 734.74 C-412.21 732.66 -409.99 730.42 -407.75 728.13 C-402.61 722.88 -397.34 717.9 -391.75 713.13 C-390.7 712.22 -389.65 711.32 -388.59 710.41 C-385.6 707.83 -382.59 705.27 -379.59 702.7 C-377.78 701.15 -375.98 699.6 -374.17 698.05 C-373.03 697.08 -371.89 696.1 -370.75 695.13 C-370.24 694.69 -369.72 694.24 -369.19 693.78 C-365.87 690.95 -362.4 688.52 -358.75 686.13 C-357.33 685.04 -355.91 683.94 -354.5 682.82 C-350.5 679.66 -346.37 676.73 -342.18 673.83 C-339.89 672.23 -337.66 670.57 -335.44 668.88 C-331.89 666.19 -328.2 663.94 -324.32 661.76 C-321.6 660.11 -321.6 660.11 -318.82 657.63 C-315.87 655.23 -313.18 653.73 -309.75 652.13 C-308.89 651.59 -308.02 651.06 -307.13 650.51 C-304.75 649.13 -304.75 649.13 -302.63 648.69 C-300.56 648.29 -300.56 648.29 -299.44 646.19 C-297.75 644.13 -297.75 644.13 -294.19 643.13 C-293.06 642.8 -291.92 642.47 -290.75 642.13 C-290.45 641.47 -290.14 640.81 -289.82 640.13 C-289.29 639.14 -289.29 639.14 -288.75 638.13 C-286.77 637.61 -284.78 637.1 -282.77 636.69 C-279.85 635.88 -278.04 634.07 -275.75 632.13 C-273.44 631.08 -271.11 630.09 -268.75 629.13 C-266.07 627.84 -263.41 626.48 -260.75 625.13 C-251.15 620.25 -251.15 620.25 -246.75 618.44 C-243.71 617.33 -243.71 617.33 -241.75 615.13 C-239.48 614.28 -237.18 613.61 -234.85 612.91 C-232.58 612.23 -232.58 612.23 -230.75 610.13 C-228.73 609.42 -226.69 608.79 -224.63 608.19 C-219.57 606.72 -214.67 605.02 -209.75 603.13 C-207.07 602.11 -204.38 601.09 -201.69 600.07 C-201.02 599.81 -200.36 599.56 -199.67 599.29 C-196.43 598.07 -193.23 596.96 -189.88 596.07 C-186.69 595.38 -186.69 595.38 -184.75 593.13 C-183.01 592.51 -183.01 592.51 -180.9 591.98 C-180.12 591.78 -179.34 591.58 -178.53 591.38 C-177.7 591.17 -176.86 590.97 -176 590.76 C-174.27 590.32 -172.54 589.87 -170.81 589.43 C-169.95 589.21 -169.09 588.99 -168.21 588.77 C-164.83 587.89 -161.48 586.92 -158.13 585.94 C-153.03 584.47 -147.95 583.21 -142.75 582.13 C-143.5 581.45 -143.5 581.45 -144.25 580.76 C-145.75 579.13 -145.75 579.13 -145.75 577.13 C-146.61 576.88 -147.46 576.64 -148.33 576.38 C-152.03 575.03 -155.2 573.23 -158.5 571.13 C-159.08 570.77 -159.66 570.42 -160.25 570.05 C-162.65 568.55 -164.75 567.14 -166.75 565.13 C-168.43 564.47 -170.11 563.8 -171.81 563.2 C-174.61 561.66 -176.51 559.4 -178.75 557.13 C-180.68 555.59 -182.64 554.09 -184.63 552.63 C-185.67 551.86 -186.72 551.08 -187.79 550.28 C-190.18 548.55 -192.58 546.86 -195 545.19 C-195.91 544.51 -196.82 543.83 -197.75 543.13 C-197.75 542.47 -197.75 541.81 -197.75 541.13 C-198.34 540.86 -198.93 540.6 -199.53 540.32 C-201.8 539.11 -203.47 537.79 -205.38 536.07 C-206.43 535.13 -206.43 535.13 -207.49 534.17 C-208.24 533.5 -208.99 532.82 -209.75 532.13 C-210.53 531.46 -211.31 530.78 -212.11 530.09 C-218.85 524.2 -224.82 517.81 -230.75 511.13 C-231.78 509.98 -231.78 509.98 -232.83 508.8 C-236.21 504.97 -239.51 501.08 -242.75 497.13 C-243.46 496.28 -244.16 495.44 -244.88 494.57 C-247.44 491.23 -249.42 488.13 -250.75 484.13 C-251.41 484.13 -252.07 484.13 -252.75 484.13 C-253.56 482.68 -253.56 482.68 -254.38 481.19 C-256.05 478.26 -257.85 475.48 -259.75 472.69 C-263.07 467.78 -265.87 462.78 -267.75 457.13 C-268.41 457.13 -269.07 457.13 -269.75 457.13 C-270.19 455.89 -270.62 454.66 -271.07 453.38 C-272.27 450.15 -273.67 447.88 -275.75 445.13 C-277.2 442.18 -278.48 439.16 -279.75 436.13 C-280.17 435.22 -280.58 434.32 -281 433.38 C-281.85 430.85 -281.91 428.78 -281.75 426.13 C-282.41 426.13 -283.07 426.13 -283.75 426.13 C-283.75 425.14 -283.75 424.15 -283.75 423.13 C-284.74 422.8 -285.73 422.47 -286.75 422.13 C-287.63 419.51 -287.63 419.51 -288.32 416.26 C-289.11 412.54 -289.63 410.32 -291.75 407.13 C-292.28 405.44 -292.76 403.73 -293.19 402.01 C-294.05 398.63 -295.02 395.35 -296.19 392.07 C-298.15 386.25 -299.24 380.28 -300.38 374.26 C-300.81 372.03 -301.24 369.8 -301.67 367.58 C-301.85 366.6 -302.04 365.63 -302.23 364.62 C-302.73 362.02 -302.73 362.02 -303.75 359.13 C-304.06 356.33 -304.26 353.53 -304.47 350.72 C-304.67 348.02 -304.67 348.02 -305.75 345.13 C-308.5 315.28 -310.97 277.75 -301.54 249.08 C-300.26 244.26 -299.6 239.32 -298.93 234.37 C-298.32 230.2 -297.8 227.29 -294.75 224.13 C-295.41 223.8 -296.07 223.47 -296.75 223.13 C-296.42 222.14 -296.09 221.15 -295.75 220.13 C-295.09 220.13 -294.43 220.13 -293.75 220.13 C-293.57 219.26 -293.39 218.39 -293.2 217.5 C-291.91 211.58 -290.57 206.51 -287.75 201.13 C-287.39 199.62 -287.06 198.1 -286.75 196.57 C-286 192.84 -284.84 190.34 -282.75 187.13 C-282.14 185.81 -281.54 184.48 -280.97 183.15 C-278.64 177.85 -276.22 172.61 -273.75 167.38 C-273.33 166.46 -272.9 165.54 -272.47 164.6 C-270.28 159.97 -268.13 156.02 -264.75 152.13 C-264.42 151.31 -264.09 150.48 -263.75 149.63 C-262.56 146.64 -260.76 144.64 -258.75 142.13 C-258.4 141.24 -258.05 140.36 -257.69 139.44 C-256.75 137.13 -256.75 137.13 -253.75 135.13 C-252.74 133.14 -251.74 131.14 -250.75 129.13 C-249.43 127.45 -248.1 125.79 -246.75 124.13 C-245.5 122.36 -244.25 120.59 -243 118.82 C-239.91 114.53 -236.64 110.87 -232.82 107.22 C-230.45 104.82 -228.37 102.27 -226.25 99.63 C-220.72 92.76 -214.64 86.8 -207.97 81.05 C-205.3 78.74 -202.68 76.38 -200.07 74.01 C-199.18 73.2 -198.29 72.39 -197.37 71.56 C-195.59 69.91 -193.86 68.21 -192.16 66.48 C-190.12 64.49 -188.39 63.1 -185.94 61.69 C-183.08 59.98 -180.4 58.16 -177.75 56.13 C-172.78 52.35 -167.78 48.85 -161.94 46.57 C-158.71 45.44 -158.71 45.44 -157.32 43.07 C-155.13 40.36 -152.92 40.37 -149.6 39.69 C-147.55 39.27 -147.55 39.27 -146.25 37.13 C-144.14 34.31 -141.95 34.37 -138.6 33.7 C-136.54 33.27 -136.54 33.27 -135.25 31.07 C-133.75 29.13 -133.75 29.13 -131.91 28.79 C-130.51 28.69 -129.1 28.62 -127.69 28.6 C-125.57 28.31 -125.57 28.31 -124.42 26.23 C-122.05 23.24 -119.72 22.98 -116.07 22.07 C-109.8 20.41 -103.95 18.46 -97.98 15.97 C-89.71 12.63 -81.49 10.44 -72.79 8.57 C-70.93 8.17 -69.08 7.75 -67.23 7.32 C-59.55 5.59 -51.84 4.29 -44.06 3.13 C-42.9 2.96 -42.9 2.96 -41.71 2.78 C-41.02 2.68 -40.33 2.58 -39.62 2.47 C-37.54 2.14 -37.54 2.14 -34.75 1.13 C-23.21 -0.06 -11.59 -0.03 0 0 Z M-9.75 50.13 C-10.08 50.46 -10.41 50.79 -10.75 51.13 C-12.23 51.2 -13.71 51.21 -15.19 51.19 C-16.09 51.19 -16.98 51.18 -17.9 51.17 C-19.8 51.14 -21.71 51.12 -23.61 51.09 C-24.5 51.08 -25.4 51.08 -26.32 51.07 C-27.14 51.06 -27.97 51.04 -28.82 51.03 C-30.76 50.91 -30.76 50.91 -31.75 52.13 C-34.25 52.46 -36.75 52.74 -39.25 53.01 C-44.52 53.61 -49.3 54.38 -54.28 56.27 C-58.41 57.7 -62.67 58.66 -66.91 59.68 C-73.91 61.39 -80.6 63.36 -87.25 66.13 C-91.01 67.69 -94.71 69.15 -98.66 70.13 C-99.68 70.46 -100.7 70.79 -101.75 71.13 C-102.08 72.12 -102.41 73.11 -102.75 74.13 C-103.68 74.17 -103.68 74.17 -104.62 74.21 C-107.05 74.38 -109.37 74.61 -111.75 75.13 C-112.8 76.43 -113.79 77.77 -114.75 79.13 C-117.01 80.03 -119.26 80.69 -121.6 81.32 C-124 82.22 -125.01 83.3 -126.75 85.13 C-129.08 86.15 -131.41 87.15 -133.75 88.13 C-135.12 89.09 -136.45 90.09 -137.75 91.13 C-138.89 91.81 -138.89 91.81 -140.05 92.5 C-163.03 106.38 -185.61 127.71 -201.75 149.13 C-202.69 150.24 -203.62 151.35 -204.57 152.44 C-206.58 154.91 -208.13 157.4 -209.75 160.13 C-210.75 161.13 -211.75 162.13 -212.75 163.13 C-213.77 164.79 -214.77 166.46 -215.75 168.13 C-216.41 168.79 -217.07 169.45 -217.75 170.13 C-218.04 171.26 -218.33 172.4 -218.63 173.57 C-219.89 177.55 -220.57 177.81 -223.75 180.13 C-224.54 181.8 -225.31 183.47 -225.98 185.19 C-226.76 187.15 -227.66 189 -228.63 190.88 C-231.16 195.89 -233.48 200.99 -235.75 206.13 C-236.16 207.03 -236.56 207.94 -236.97 208.87 C-239.59 214.93 -241.84 221.07 -243.94 227.32 C-244.19 228.05 -244.44 228.79 -244.7 229.55 C-246.4 234.69 -247.64 239.84 -248.75 245.13 C-249.23 247.17 -249.71 249.21 -250.19 251.26 C-252.69 262.13 -254.89 272.94 -256.11 284.03 C-256.66 288.94 -256.66 288.94 -257.75 291.13 C-257.8 293.39 -257.77 295.65 -257.7 297.91 C-257.69 298.59 -257.67 299.27 -257.65 299.98 C-257.59 302.19 -257.52 304.41 -257.44 306.63 C-257.42 307.38 -257.39 308.14 -257.37 308.92 C-256.78 326.69 -254.69 343.54 -251.17 360.97 C-250.82 362.79 -250.51 364.62 -250.22 366.45 C-248.94 373.87 -246.14 381.03 -243.74 388.15 C-242.32 392.45 -241.02 396.78 -239.75 401.13 C-239.09 401.13 -238.43 401.13 -237.75 401.13 C-237.58 401.92 -237.41 402.7 -237.24 403.51 C-237 404.56 -236.75 405.61 -236.5 406.69 C-236.27 407.73 -236.04 408.76 -235.8 409.82 C-234.82 412.94 -233.51 415.49 -231.83 418.29 C-230.71 420.2 -229.73 422.15 -228.75 424.14 C-228.42 424.81 -228.09 425.49 -227.75 426.19 C-227.08 427.57 -226.42 428.96 -225.75 430.35 C-223.78 434.38 -221.6 437.63 -218.75 441.13 C-217.75 443.13 -216.75 445.13 -215.75 447.13 C-214.25 449.46 -212.64 451.7 -211 453.94 C-210.56 454.56 -210.11 455.18 -209.65 455.81 C-208.36 457.59 -207.06 459.36 -205.75 461.13 C-205.16 461.94 -204.57 462.75 -203.97 463.58 C-196 474.18 -186.44 483.54 -177.13 492.94 C-176.34 493.75 -175.54 494.56 -174.72 495.39 C-173.61 496.51 -173.61 496.51 -172.47 497.65 C-171.8 498.32 -171.13 498.99 -170.44 499.68 C-168.87 501.35 -168.87 501.35 -166.75 501.13 C-166.75 501.79 -166.75 502.45 -166.75 503.13 C-164.39 505 -162.02 506.77 -159.57 508.51 C-158.22 509.47 -156.87 510.44 -155.52 511.4 C-154.87 511.87 -154.23 512.33 -153.56 512.81 C-151.23 514.51 -149 516.32 -146.75 518.13 C-145.27 519.22 -143.77 520.28 -142.25 521.32 C-141.52 521.83 -140.79 522.34 -140.04 522.86 C-137.59 524.22 -135.51 524.73 -132.75 525.13 C-132.75 525.79 -132.75 526.45 -132.75 527.13 C-130.72 528.56 -128.7 529.86 -126.57 531.13 C-125.99 531.49 -125.41 531.84 -124.82 532.21 C-121.54 534.19 -118.31 535.75 -114.75 537.13 C-113.49 537.76 -112.22 538.39 -110.97 539.04 C-106.85 541.12 -102.65 542.9 -98.38 544.63 C-97.69 544.91 -97 545.19 -96.29 545.49 C-94.86 546.07 -93.43 546.65 -92.01 547.22 C-90.45 547.85 -88.89 548.49 -87.33 549.13 C-41.94 567.76 12.04 568.88 59.43 557.94 C63.25 557.13 63.25 557.13 66.18 557.19 C67.2 557.16 67.2 557.16 68.25 557.13 C68.91 556.14 69.57 555.15 70.25 554.13 C72.99 553.43 75.59 552.88 78.37 552.44 C79.12 552.31 79.88 552.18 80.66 552.05 C82.52 551.73 84.38 551.43 86.25 551.13 C86.58 550.14 86.91 549.15 87.25 548.13 C87.84 548.04 88.43 547.96 89.05 547.87 C96.08 546.68 101.89 544.29 108.25 541.13 C109.56 540.49 110.87 539.84 112.18 539.2 C116.22 537.21 120.24 535.18 124.25 533.13 C125.23 532.63 126.22 532.13 127.23 531.61 C128.04 531.18 128.85 530.76 129.68 530.32 C130.36 529.96 131.04 529.6 131.74 529.24 C133.57 528.11 133.57 528.11 134.25 525.13 C136.57 524.44 138.91 523.78 141.25 523.13 C142.83 521.71 142.83 521.71 144.25 520.13 C145.21 519.66 146.18 519.18 147.18 518.69 C150.25 517.13 151.87 515.58 154.25 513.13 C155.15 512.53 156.05 511.94 156.98 511.33 C172.54 500.87 186.81 486.29 198.32 471.56 C200.92 468.28 203.75 465.25 206.62 462.2 C208.39 459.94 209.23 457.8 210.25 455.13 C211.56 453.78 212.89 452.44 214.25 451.13 C215.27 449.48 216.27 447.81 217.25 446.13 C217.91 445.47 218.57 444.81 219.25 444.13 C219.53 443.16 219.82 442.19 220.12 441.19 C221.25 438.13 221.25 438.13 223.18 436.82 C226.08 434.44 226.48 431.79 227.53 428.27 C228.36 425.8 229.67 424.19 231.25 422.13 C231.58 420.95 231.91 419.78 232.25 418.57 C233.25 415.13 233.25 415.13 234.71 413.7 C236.6 411.77 237.06 410.15 237.81 407.57 C239.04 403.34 239.04 403.34 241.25 401.13 C241.9 399.38 242.47 397.61 243 395.82 C243.51 394.1 243.51 394.1 244.03 392.35 C244.97 389.11 245.89 385.87 246.8 382.63 C247.07 381.69 247.34 380.74 247.62 379.76 C248.16 377.85 248.69 375.94 249.23 374.03 C249.47 373.15 249.72 372.27 249.98 371.36 C250.2 370.57 250.42 369.78 250.64 368.97 C251.25 367.13 251.25 367.13 252.25 366.13 C252.52 364.5 252.74 362.85 252.93 361.2 C253.11 359.68 253.11 359.68 253.3 358.12 C253.43 357.03 253.55 355.94 253.68 354.82 C255.26 341.62 255.26 341.62 256.43 335.26 C257.23 330.82 257.39 326.6 257.22 322.09 C257.25 320.13 257.25 320.13 258.25 318.13 C258.34 315.8 258.38 313.46 258.37 311.13 C258.37 309.24 258.37 309.24 258.38 307.32 C258.47 304.23 258.47 304.23 257.25 302.13 C257.25 300.09 257.3 298.05 257.37 296.01 C257.61 279.44 254.65 263.04 250.25 247.13 C249.92 245.79 249.59 244.44 249.28 243.09 C247.04 233.59 244.61 223.85 240.22 215.08 C238.59 211.81 237.53 208.33 236.34 204.88 C235.22 202.07 233.84 199.7 232.25 197.13 C231.21 195.14 230.19 193.14 229.18 191.13 C228.68 190.12 228.17 189.11 227.65 188.07 C226.25 185.13 226.25 185.13 225.19 182.41 C224.3 179.96 224.3 179.96 222.25 177.63 C220.26 175.15 219.33 173.08 218.25 170.13 C217.59 169.14 216.93 168.15 216.25 167.13 C215.59 167.13 214.93 167.13 214.25 167.13 C214.13 166.32 214.13 166.32 214.02 165.5 C212.94 162.19 211.01 159.94 208.87 157.19 C204.48 151.53 204.48 151.53 202.77 148.56 C200.93 145.62 198.74 143.54 196.25 141.13 C195.06 139.89 193.89 138.64 192.72 137.39 C192.09 136.71 191.46 136.04 190.82 135.35 C189.53 133.96 188.24 132.57 186.95 131.19 C181.59 125.44 176.21 119.7 170.25 114.57 C169.23 113.7 169.23 113.7 168.2 112.81 C167.55 112.25 166.91 111.7 166.25 111.13 C165.7 110.65 165.16 110.17 164.6 109.67 C155.37 101.53 145.24 94.53 134.75 88.13 C131.48 86.14 128.25 84.14 125.09 81.98 C122.73 80.45 120.82 79.43 118.18 78.57 C114.92 77.43 112.17 76 109.25 74.13 C106.5 72.59 105.47 72.13 102.25 72.13 C102.25 71.47 102.25 70.81 102.25 70.13 C101.46 69.88 100.68 69.62 99.87 69.36 C98.29 68.84 98.29 68.84 96.68 68.32 C95.65 67.98 94.62 67.64 93.55 67.3 C90.25 66.13 90.25 66.13 87.26 64.72 C81.34 62.13 74.89 61.01 68.62 59.57 C66.02 58.97 63.43 58.36 60.83 57.75 C59.69 57.49 58.54 57.22 57.36 56.95 C54.53 56.21 51.96 55.22 49.25 54.13 C46.33 53.69 43.48 53.34 40.56 53.07 C39.27 52.94 39.27 52.94 37.95 52.82 C29.46 52.05 20.96 51.74 12.45 51.46 C5.69 51.24 -1 50.88 -7.73 50.22 C-8.4 50.19 -9.07 50.16 -9.75 50.13 Z " fill="#000100" transform="translate(638.754638671875,49.86962890625)"/>
</svg>
