<?xml version="1.0" encoding="UTF-8"?>
<!-- Generator: visioncortex VTracer 0.6.3 -->
<svg version="1.1" xmlns="http://www.w3.org/2000/svg" width="1280" height="1280">
<path d="M0 0 C6.93 0 13.86 0 21 0 C21 0.33 21 0.66 21 1 C29.96 1.77 38.89 2.19 47.88 2.44 C57.72 2.75 67.28 3.32 77 5 C78.05 5.18 79.09 5.36 80.17 5.54 C82.17 5.88 84.16 6.22 86.16 6.57 C89 7 91.82 7.27 94.69 7.5 C100.38 7.97 105.75 9.18 111.28 10.57 C116.33 11.79 120.8 12.19 126 12 C126 12.66 126 13.32 126 14 C126.69 14.05 127.37 14.1 128.08 14.15 C128.98 14.22 129.88 14.3 130.81 14.38 C132.15 14.48 132.15 14.48 133.52 14.59 C136 15 136 15 139 17 C140.98 17.25 142.97 17.5 144.96 17.66 C147.28 18.05 148.91 18.95 151 20 C152.55 20.36 154.12 20.67 155.69 20.94 C159.84 21.72 163.71 22.81 167.7 24.21 C171.04 25.36 174.44 26.3 177.84 27.25 C180 28 180 28 183 30 C184.96 30.58 186.95 31.09 188.94 31.56 C189.98 31.81 191.02 32.06 192.09 32.32 C193.05 32.54 194.01 32.77 195 33 C196.33 33.33 197.67 33.66 199 34 C199 34.66 199 35.32 199 36 C199.84 36.15 199.84 36.15 200.69 36.3 C205.54 37.25 209.55 38.6 213.9 40.93 C216.95 42.48 220.12 43.67 223.31 44.88 C226.23 46.1 229.01 47.49 231.83 48.92 C234.76 50.38 237.73 51.76 240.7 53.14 C279.56 71.3 279.56 71.3 291.38 80.94 C293.79 82.83 296.23 84.31 298.9 85.8 C310.86 92.66 310.86 92.66 316 97 C316 97.66 316 98.32 316 99 C317.08 99.12 317.08 99.12 318.19 99.25 C321.62 100.16 323.27 101.74 326 104 C327.89 105.43 329.78 106.85 331.69 108.25 C333.12 109.31 333.12 109.31 334.57 110.39 C336.79 112.18 336.79 112.18 339 112 C339 112.99 339 113.98 339 115 C339.9 115.4 339.9 115.4 340.81 115.81 C342.99 116.99 344.27 118.27 346 120 C346.99 120.33 347.98 120.66 349 121 C349 121.66 349 122.32 349 123 C349.56 123.23 350.11 123.45 350.69 123.69 C353.63 125.36 355.61 127.61 358 130 C359.66 131.01 361.33 132.01 363 133 C364.33 134.33 365.67 135.67 367 137 C367.72 137.33 368.44 137.66 369.19 138 C371 139 371 139 371.75 141.12 C371.87 142.05 371.87 142.05 372 143 C372.66 143 373.32 143 374 143 C374 143.66 374 144.32 374 145 C374.54 145.22 375.09 145.44 375.65 145.66 C378.78 147.44 381.13 149.84 383.64 152.38 C384.17 152.9 384.69 153.43 385.24 153.97 C386.35 155.07 387.45 156.18 388.56 157.29 C390.25 159 391.96 160.7 393.66 162.39 C394.74 163.47 395.82 164.55 396.89 165.62 C397.4 166.13 397.92 166.64 398.44 167.17 C402 170.77 402 170.77 402 173 C402.66 173 403.32 173 404 173 C404 173.66 404 174.32 404 175 C404.99 175.33 405.98 175.66 407 176 C407 176.66 407 177.32 407 178 C407.66 178 408.32 178 409 178 C410.15 179.64 410.15 179.64 411.38 181.81 C413.31 185.03 414.91 186.85 418 189 C421.05 192.21 423.7 195.54 426.12 199.25 C427.82 202.05 427.82 202.05 430.25 203.69 C430.83 204.12 431.4 204.55 432 205 C432 205.99 432 206.98 432 208 C432.66 208 433.32 208 434 208 C435.15 209.57 435.15 209.57 436.38 211.69 C438.37 215.02 440.53 217.99 443 221 C443.93 222.2 444.85 223.41 445.75 224.62 C446.39 225.48 446.39 225.48 447.05 226.35 C448 228 448 228 448 231 C448.99 231.33 449.98 231.66 451 232 C452.82 234.4 452.82 234.4 454.69 237.38 C455.31 238.35 455.93 239.33 456.57 240.34 C458 243 458 243 458 246 C458.99 246.33 459.98 246.66 461 247 C462.14 248.43 462.14 248.43 463.25 250.31 C463.89 251.39 463.89 251.39 464.55 252.49 C465.03 253.32 465.51 254.15 466 255 C466.56 255.96 467.12 256.93 467.7 257.92 C468.9 259.97 470.1 262.03 471.29 264.09 C473.14 267.23 475.1 270.27 477.15 273.28 C478 275 478 275 478 279 C478.66 279 479.32 279 480 279 C482.03 282.73 483 284.67 483 289 C483.66 289 484.32 289 485 289 C485.33 290.65 485.66 292.3 486 294 C486.66 294 487.32 294 488 294 C488 295.65 488 297.3 488 299 C488.66 299 489.32 299 490 299 C490.33 300.65 490.66 302.3 491 304 C491.66 304 492.32 304 493 304 C493 305.65 493 307.3 493 309 C493.66 309 494.32 309 495 309 C495.33 309.72 495.65 310.45 495.99 311.2 C496.64 312.65 496.64 312.65 497.31 314.12 C497.74 315.08 498.17 316.03 498.61 317.01 C499.53 318.98 500.49 320.94 501.48 322.88 C503.22 326.45 504.59 330.08 505.94 333.81 C507.54 338.17 509.15 342.48 511.12 346.69 C513.68 352.26 515.27 358.13 517 364 C517.7 366.36 518.41 368.71 519.12 371.06 C519.59 372.63 519.59 372.63 520.07 374.22 C520.89 376.91 520.89 376.91 522.02 378.93 C523.91 382.92 524.38 387.39 525.22 391.69 C525.83 394.85 525.83 394.85 527 396.98 C528.49 399.99 528.9 403.08 529.5 406.38 C530.37 411.08 531.44 415.48 533 420 C534.44 425.85 535.26 431.67 535.66 437.68 C535.92 440.06 535.92 440.06 536.96 442.4 C540.48 451.24 540.28 461.97 540.66 471.41 C540.84 474.92 540.84 474.92 542 477.73 C543.52 482.71 543.43 487.69 543.56 492.88 C543.62 494.98 543.69 497.08 543.75 499.18 C543.79 500.57 543.79 500.57 543.83 501.98 C543.97 505.11 543.97 505.11 544.51 508.65 C545.2 513.92 545.12 519.18 545.1 524.5 C545.1 525.58 545.09 526.65 545.09 527.76 C545.09 531.17 545.08 534.59 545.06 538 C545.06 540.32 545.05 542.65 545.05 544.97 C545.04 550.65 545.02 556.32 545 562 C544.34 562 543.68 562 543 562 C543.01 562.68 543.02 563.36 543.04 564.06 C543.14 575.4 542.52 586.59 540.94 597.81 C540 604.76 539.86 611.52 540.07 618.53 C540.18 623.18 539.61 626.58 538 631 C537.75 633.1 537.56 635.2 537.44 637.31 C537.1 642.9 537.1 642.9 536 644 C535.77 646.02 535.59 648.04 535.44 650.06 C535.31 651.72 535.31 651.72 535.18 653.41 C535.09 654.69 535.09 654.69 535 656 C534.34 656 533.68 656 533 656 C532.91 657.5 532.91 657.5 532.82 659.03 C532.73 660.32 532.65 661.61 532.56 662.94 C532.48 664.23 532.4 665.51 532.32 666.84 C532 670 532 670 531 671 C530.72 673.22 530.55 675.44 530.38 677.68 C530 680 530 680 529.06 681.79 C527.2 685.67 526.83 690.02 526.14 694.24 C525.54 697.76 525.01 699.98 523 703 C522.64 705.33 522.3 707.66 522 710 C521.67 710.33 521.34 710.66 521 711 C520.86 712.11 520.71 713.23 520.56 714.38 C520 718 520 718 518 721 C517.49 722.88 517.04 724.78 516.62 726.69 C515.54 731.29 514.12 735.05 511.85 739.18 C510.5 742.08 510.26 744.83 510 748 C509.34 748 508.68 748 508 748 C507.01 751.96 506.02 755.92 505 760 C504.34 760 503.68 760 503 760 C502.88 760.85 502.75 761.69 502.62 762.56 C501.97 766.15 501.05 769.51 500 773 C499.34 773 498.68 773 498 773 C497.83 773.64 497.66 774.28 497.48 774.94 C496.3 779.16 495.15 783.05 492.88 786.81 C491.15 789.75 490.58 791.72 490 795 C489.34 795.33 488.68 795.66 488 796 C486.98 797.94 486.98 797.94 486.06 800.25 C484.6 803.69 482.95 806.81 481 810 C480.67 810.85 480.34 811.69 480 812.56 C479 815 479 815 477.44 817.06 C475.94 819.08 475.44 820.55 475 823 C474.34 823 473.68 823 473 823 C472.75 823.68 472.51 824.36 472.25 825.06 C471.01 827.97 469.55 830.57 467.95 833.29 C466.75 835.45 465.84 837.68 465 840 C464.34 840 463.68 840 463 840 C461.92 842.65 460.91 845.28 460 848 C459.34 848 458.68 848 458 848 C456.79 850.33 455.83 852.5 455 855 C454.34 855 453.68 855 453 855 C452.67 856.65 452.34 858.3 452 860 C451.34 860 450.68 860 450 860 C450 860.99 450 861.98 450 863 C449.34 863 448.68 863 448 863 C446.79 865.33 445.83 867.5 445 870 C444.34 870 443.68 870 443 870 C442.73 870.56 442.46 871.11 442.19 871.69 C439.81 876.32 436.97 880.58 433.94 884.81 C433.25 885.79 432.55 886.76 431.84 887.77 C431.23 888.51 430.63 889.24 430 890 C429.34 890 428.68 890 428 890 C427.75 890.54 427.51 891.07 427.25 891.62 C425.69 894.58 423.97 897.3 422 900 C421.34 900 420.68 900 420 900 C419.73 900.58 419.46 901.15 419.19 901.75 C417.97 904.06 416.7 906.02 415 908 C414.34 908 413.68 908 413 908 C412.71 908.6 412.42 909.2 412.12 909.81 C411 912 411 912 409 915 C408.34 915 407.68 915 407 915 C406.77 915.72 406.55 916.44 406.31 917.19 C404.74 920.56 402.79 922.56 400 925 C399.34 925 398.68 925 398 925 C397.67 925.99 397.34 926.98 397 928 C396.34 928 395.68 928 395 928 C395 928.66 395 929.32 395 930 C394.34 930 393.68 930 393 930 C392.67 930.99 392.34 931.98 392 933 C391.34 933 390.68 933 390 933 C390 933.66 390 934.32 390 935 C389.34 935 388.68 935 388 935 C387.73 935.64 387.46 936.28 387.19 936.94 C386 939 386 939 383 940 C382.67 940.99 382.34 941.98 382 943 C381.34 943 380.68 943 380 943 C380 943.66 380 944.32 380 945 C379.34 945 378.68 945 378 945 C377.67 945.99 377.34 946.98 377 948 C376.34 948 375.68 948 375 948 C375 948.66 375 949.32 375 950 C373.32 951.62 373.32 951.62 371.12 953.44 C368.54 955.58 366.89 957.17 365 960 C364.24 960.45 363.47 960.91 362.69 961.38 C359.83 962.96 359.83 962.96 357.31 965.69 C356.55 966.45 355.79 967.21 355 968 C354.34 968 353.68 968 353 968 C353 968.66 353 969.32 353 970 C352.01 970 351.02 970 350 970 C350 970.66 350 971.32 350 972 C349.34 972 348.68 972 348 972 C347.67 972.99 347.34 973.98 347 975 C342.67 978 342.67 978 340 978 C340 978.66 340 979.32 340 980 C337.35 982.4 334.89 984.48 331.8 986.27 C327.18 989.12 322.98 992.54 318.71 995.88 C318.02 996.41 317.33 996.94 316.62 997.48 C315.99 997.96 315.37 998.45 314.73 998.95 C313 1000 313 1000 310 1000 C310 1000.66 310 1001.32 310 1002 C307.44 1004.3 306.52 1005 303 1005 C303 1005.66 303 1006.32 303 1007 C300.09 1009.04 298.6 1010 295 1010 C295 1010.66 295 1011.32 295 1012 C292.88 1013.51 292.88 1013.51 290.12 1015.12 C289.22 1015.66 288.32 1016.2 287.38 1016.76 C285 1018 285 1018 283 1018 C283 1018.66 283 1019.32 283 1020 C281.89 1020.45 280.77 1020.91 279.62 1021.38 C276.04 1022.72 276.04 1022.72 274 1025 C272.68 1025 271.36 1025 270 1025 C270 1025.66 270 1026.32 270 1027 C268.35 1027.33 266.7 1027.66 265 1028 C265 1028.66 265 1029.32 265 1030 C264.09 1030.37 263.18 1030.74 262.25 1031.12 C254.73 1034.35 247.48 1038.14 240.38 1042.19 C235.42 1044.93 230.48 1046.64 225 1048 C225 1048.66 225 1049.32 225 1050 C219.06 1051.49 219.06 1051.49 213 1053 C213 1053.66 213 1054.32 213 1055 C211.37 1055.42 209.74 1055.85 208.12 1056.27 C205.83 1057 205.83 1057 203.16 1058.45 C200.01 1060 196.99 1061.02 193.62 1062 C188.65 1063.48 183.84 1065.13 179 1067 C177.87 1067.37 176.73 1067.74 175.56 1068.12 C173.1 1068.76 173.1 1068.76 172 1070 C170.51 1070.19 170.51 1070.19 169 1070.38 C164.7 1070.93 158.16 1071.84 155 1075 C152.94 1075.32 150.88 1075.51 148.81 1075.72 C146.98 1075.82 146.98 1075.82 146 1077 C144.32 1077.23 142.63 1077.41 140.94 1077.56 C139.56 1077.69 139.56 1077.69 138.15 1077.82 C137.44 1077.88 136.73 1077.94 136 1078 C136 1078.66 136 1079.32 136 1080 C135.29 1080.06 134.58 1080.12 133.85 1080.18 C132.47 1080.31 132.47 1080.31 131.06 1080.44 C130.15 1080.52 129.23 1080.6 128.29 1080.68 C126.04 1080.76 126.04 1080.76 125 1082 C122.17 1082.57 119.32 1083.03 116.47 1083.5 C114.07 1083.75 114.07 1083.75 113 1085 C109.9 1085.32 106.8 1085.51 103.69 1085.72 C101.08 1085.71 101.08 1085.71 100 1087 C96.58 1087.48 93.16 1087.87 89.73 1088.25 C86.06 1088.36 86.06 1088.36 83 1090 C81.6 1090.14 80.19 1090.23 78.78 1090.28 C77.93 1090.32 77.08 1090.36 76.21 1090.39 C73.5 1090.5 73.5 1090.5 70.79 1090.61 C69.94 1090.64 69.09 1090.68 68.22 1090.72 C67.43 1090.75 66.65 1090.78 65.84 1090.81 C63.98 1090.81 63.98 1090.81 63 1092 C61.61 1092.15 60.21 1092.23 58.81 1092.28 C57.91 1092.32 57.02 1092.35 56.1 1092.39 C55.13 1092.43 54.16 1092.46 53.16 1092.5 C52.16 1092.54 51.16 1092.58 50.13 1092.62 C46.92 1092.75 43.71 1092.88 40.5 1093 C37.32 1093.12 34.14 1093.25 30.95 1093.38 C28.97 1093.46 26.99 1093.53 25.01 1093.61 C19.92 1093.81 14.92 1094.18 9.88 1094.9 C8 1095 8 1095 5 1094 C3.49 1093.86 1.97 1093.78 0.45 1093.72 C-0.46 1093.68 -1.38 1093.65 -2.33 1093.61 C-3.81 1093.55 -3.81 1093.55 -5.32 1093.5 C-6.33 1093.46 -7.35 1093.42 -8.39 1093.38 C-12.74 1093.2 -17.09 1093.04 -21.44 1092.88 C-24.61 1092.75 -27.78 1092.63 -30.95 1092.5 C-32.43 1092.45 -32.43 1092.45 -33.95 1092.39 C-34.86 1092.36 -35.77 1092.32 -36.71 1092.28 C-37.92 1092.24 -37.92 1092.24 -39.15 1092.19 C-41 1092 -41 1092 -42 1091 C-43.34 1090.87 -44.69 1090.8 -46.04 1090.75 C-46.87 1090.72 -47.7 1090.69 -48.55 1090.65 C-50.29 1090.59 -52.03 1090.54 -53.77 1090.48 C-58.57 1090.29 -62.45 1089.67 -67 1088 C-68.76 1087.76 -70.54 1087.56 -72.31 1087.44 C-76.9 1087.1 -76.9 1087.1 -78 1086 C-81.26 1085.71 -84.53 1085.55 -87.8 1085.38 C-90.81 1085.02 -92.39 1084.41 -95 1083 C-97.09 1082.59 -97.09 1082.59 -99.19 1082.44 C-103 1082 -103 1082 -104 1081 C-105.68 1080.77 -107.37 1080.59 -109.06 1080.44 C-109.98 1080.35 -110.9 1080.27 -111.85 1080.18 C-112.91 1080.09 -112.91 1080.09 -114 1080 C-114 1079.34 -114 1078.68 -114 1078 C-115.07 1077.91 -115.07 1077.91 -116.15 1077.82 C-117.07 1077.73 -117.99 1077.65 -118.94 1077.56 C-119.85 1077.48 -120.77 1077.4 -121.71 1077.32 C-124 1077 -124 1077 -125 1076 C-126.35 1075.77 -127.7 1075.59 -129.06 1075.44 C-130.36 1075.29 -131.66 1075.15 -133 1075 C-133 1074.34 -133 1073.68 -133 1073 C-133.96 1072.91 -133.96 1072.91 -134.93 1072.82 C-136.17 1072.69 -136.17 1072.69 -137.44 1072.56 C-138.26 1072.48 -139.08 1072.4 -139.93 1072.32 C-142 1072 -142 1072 -143 1071 C-144.13 1070.86 -145.27 1070.71 -146.44 1070.56 C-150 1070 -150 1070 -152 1068 C-153.99 1067.6 -155.99 1067.26 -158 1067 C-158 1066.34 -158 1065.68 -158 1065 C-158.93 1065.04 -159.86 1065.08 -160.81 1065.12 C-164 1065 -164 1065 -167 1063 C-168.74 1062.5 -170.49 1062.04 -172.25 1061.62 C-175.76 1060.72 -178.73 1059.78 -181.81 1057.88 C-185.02 1055.99 -187.33 1055.36 -191 1055 C-191 1054.34 -191 1053.68 -191 1053 C-194.96 1052.01 -198.92 1051.02 -203 1050 C-203 1049.34 -203 1048.68 -203 1048 C-203.96 1047.74 -203.96 1047.74 -204.94 1047.48 C-210.53 1045.92 -215.03 1043.98 -220 1041 C-222.27 1040.24 -222.27 1040.24 -224 1040 C-224 1039.34 -224 1038.68 -224 1038 C-224.58 1037.83 -225.16 1037.66 -225.76 1037.48 C-230.8 1035.92 -234.64 1034.03 -239 1031 C-241.3 1029.9 -243.63 1028.96 -246 1028 C-246.66 1027.67 -247.32 1027.34 -248 1027 C-248 1026.34 -248 1025.68 -248 1025 C-248.74 1024.9 -249.49 1024.79 -250.25 1024.69 C-253.21 1023.95 -254.62 1022.84 -257 1021 C-259.15 1020.29 -259.15 1020.29 -261 1020 C-261 1019.34 -261 1018.68 -261 1018 C-261.68 1017.75 -262.36 1017.51 -263.06 1017.25 C-266.57 1015.76 -269.72 1013.93 -273 1012 C-273 1011.34 -273 1010.68 -273 1010 C-273.87 1009.81 -273.87 1009.81 -274.75 1009.62 C-277.02 1008.99 -278.93 1008.11 -281 1007 C-281 1006.34 -281 1005.68 -281 1005 C-281.6 1004.88 -282.2 1004.75 -282.81 1004.62 C-285 1004 -285 1004 -288 1002 C-288 1001.34 -288 1000.68 -288 1000 C-288.59 999.88 -289.18 999.76 -289.79 999.64 C-292.1 998.97 -293.47 998.15 -295.39 996.71 C-296.01 996.24 -296.64 995.78 -297.28 995.31 C-297.93 994.81 -298.58 994.32 -299.25 993.81 C-300.26 993.06 -300.26 993.06 -301.28 992.29 C-302.61 991.31 -303.93 990.31 -305.24 989.32 C-306.66 988.25 -308.09 987.2 -309.52 986.15 C-313.3 983.37 -316.87 980.44 -320.36 977.3 C-322.14 975.89 -323.94 974.95 -326 974 C-326 973.34 -326 972.68 -326 972 C-326.66 972 -327.32 972 -328 972 C-328 971.34 -328 970.68 -328 970 C-328.58 969.73 -329.15 969.46 -329.75 969.19 C-332.06 967.97 -334.02 966.7 -336 965 C-336 964.34 -336 963.68 -336 963 C-338.33 961.79 -340.5 960.83 -343 960 C-344.72 958.22 -344.72 958.22 -346.5 956.06 C-348.63 953.49 -350.18 951.88 -353 950 C-353 949.34 -353 948.68 -353 948 C-353.99 947.67 -354.98 947.34 -356 947 C-356 946.34 -356 945.68 -356 945 C-356.66 945 -357.32 945 -358 945 C-358 944.34 -358 943.68 -358 943 C-358.99 942.67 -359.98 942.34 -361 942 C-361 941.34 -361 940.68 -361 940 C-361.64 939.73 -362.28 939.46 -362.94 939.19 C-365 938 -365 938 -366 935 C-366.66 935 -367.32 935 -368 935 C-368 934.34 -368 933.68 -368 933 C-368.99 932.67 -369.98 932.34 -371 932 C-371 931.34 -371 930.68 -371 930 C-371.66 930 -372.32 930 -373 930 C-373 929.34 -373 928.68 -373 928 C-373.66 928 -374.32 928 -375 928 C-376.33 926.64 -376.33 926.64 -377.81 924.81 C-379.67 922.57 -381.5 920.5 -383.56 918.44 C-386.26 915.74 -388.66 913.01 -391 910 C-391 909.34 -391 908.68 -391 908 C-391.66 908 -392.32 908 -393 908 C-398 902.52 -398 902.52 -398 900 C-398.66 900 -399.32 900 -400 900 C-401.51 898.32 -401.51 898.32 -403.12 896.12 C-403.66 895.41 -404.2 894.69 -404.76 893.95 C-406 892 -406 892 -406 890 C-406.66 890 -407.32 890 -408 890 C-409.34 888.37 -410.6 886.66 -411.81 884.94 C-412.52 883.94 -413.23 882.94 -413.96 881.91 C-414.63 880.95 -415.31 879.99 -416 879 C-417 877.65 -418 876.29 -419 874.94 C-421 872 -421 872 -421 870 C-421.66 870 -422.32 870 -423 870 C-426 865.62 -426 865.62 -426 863 C-426.66 863 -427.32 863 -428 863 C-428 862.01 -428 861.02 -428 860 C-428.66 860 -429.32 860 -430 860 C-430.33 858.35 -430.66 856.7 -431 855 C-431.66 855 -432.32 855 -433 855 C-436 850.62 -436 850.62 -436 848 C-436.66 848 -437.32 848 -438 848 C-441 842.25 -441 842.25 -441 840 C-441.66 840 -442.32 840 -443 840 C-443.45 838.89 -443.91 837.77 -444.38 836.62 C-445.72 833.04 -445.72 833.04 -448 831 C-448 830.01 -448 829.02 -448 828 C-448.66 828 -449.32 828 -450 828 C-450.33 826.35 -450.66 824.7 -451 823 C-451.66 823 -452.32 823 -453 823 C-453.45 821.89 -453.91 820.77 -454.38 819.62 C-455.72 816.04 -455.72 816.04 -458 814 C-458.84 811.99 -459.52 809.94 -460.22 807.88 C-460.94 805.8 -460.94 805.8 -463 804 C-463 802.68 -463 801.36 -463 800 C-463.66 800 -464.32 800 -465 800 C-465.12 799.36 -465.25 798.72 -465.38 798.06 C-465.58 797.38 -465.79 796.7 -466 796 C-466.66 795.67 -467.32 795.34 -468 795 C-468.71 793.21 -468.71 793.21 -469.38 790.94 C-470.39 787.69 -471.54 784.76 -473.12 781.75 C-474.65 778.85 -475.59 776.29 -476 773 C-476.66 773 -477.32 773 -478 773 C-478.51 771.4 -479 769.79 -479.5 768.19 C-479.92 766.85 -479.92 766.85 -480.34 765.48 C-481 763 -481 763 -481 760 C-481.66 760 -482.32 760 -483 760 C-483.99 756.04 -484.98 752.08 -486 748 C-486.66 748 -487.32 748 -488 748 C-488.29 746.75 -488.29 746.75 -488.59 745.48 C-488.98 743.85 -488.98 743.85 -489.38 742.19 C-489.63 741.11 -489.89 740.03 -490.15 738.92 C-490.89 735.84 -490.89 735.84 -493 733 C-493.85 729.96 -494.52 726.89 -495.22 723.81 C-495.89 720.83 -495.89 720.83 -498 718 C-498.36 715.67 -498.69 713.34 -499 711 C-500.09 706.49 -500.09 706.49 -501.97 702.29 C-503.73 698.36 -504.16 694.07 -504.86 689.84 C-505.49 686.21 -506.29 683.25 -508 680 C-508.38 677.68 -508.38 677.68 -508.56 675.31 C-508.6 672.36 -508.6 672.36 -510 670 C-510.24 667.65 -510.41 665.29 -510.56 662.94 C-510.65 661.65 -510.73 660.36 -510.82 659.03 C-510.88 658.03 -510.94 657.03 -511 656 C-511.66 656 -512.32 656 -513 656 C-513.06 655.15 -513.12 654.29 -513.18 653.41 C-513.31 651.75 -513.31 651.75 -513.44 650.06 C-513.52 648.96 -513.6 647.86 -513.68 646.72 C-513.7 644.09 -513.7 644.09 -515 643 C-515.29 640.06 -515.45 637.12 -515.62 634.18 C-516.01 630.88 -516.95 628.14 -518 625 C-518.41 622.51 -518.76 620.01 -519.06 617.5 C-519.19 616.46 -519.19 616.46 -519.31 615.4 C-519.99 609.61 -520.42 603.81 -520.75 597.99 C-520.93 595.1 -520.93 595.1 -521.5 592.69 C-522.05 589.75 -522.19 586.95 -522.28 583.96 C-522.32 582.8 -522.36 581.64 -522.39 580.45 C-522.43 579.25 -522.46 578.05 -522.5 576.81 C-522.71 569.55 -522.95 562.35 -523.8 555.13 C-524.07 552.22 -524.01 549.35 -523.96 546.43 C-524.02 542.53 -524.46 538.67 -524.88 534.8 C-525 532 -525 532 -524.54 529.94 C-523.76 525.69 -523.67 521.45 -523.5 517.13 C-523.46 516.18 -523.42 515.23 -523.38 514.25 C-523.25 511.21 -523.12 508.17 -523 505.12 C-522.84 501.13 -522.67 497.13 -522.5 493.13 C-522.46 492.22 -522.43 491.31 -522.39 490.37 C-522.19 485.52 -521.78 480.8 -521 476 C-520.84 474.85 -520.67 473.69 -520.5 472.5 C-519 462 -519 462 -518.44 458.3 C-517.92 454.93 -517.92 454.93 -518 451.25 C-518 448 -518 448 -517 445 C-516.34 445 -515.68 445 -515 445 C-515.19 444.29 -515.39 443.59 -515.59 442.86 C-516.07 439.54 -515.55 437.46 -514.62 434.25 C-513.24 429.13 -512.44 424.28 -512 419 C-511.67 419 -511.34 419 -511 419 C-510.8 417.99 -510.8 417.99 -510.6 416.95 C-510.42 416.06 -510.24 415.17 -510.06 414.25 C-509.8 412.93 -509.8 412.93 -509.54 411.58 C-509.08 409.37 -508.55 407.19 -508 405 C-507.75 403.74 -507.5 402.48 -507.25 401.19 C-506.16 396.14 -504.44 391.33 -502.75 386.47 C-501.21 381.92 -500.47 377.75 -500 373 C-499.34 372.34 -498.68 371.68 -498 371 C-497.88 369.93 -497.75 368.86 -497.62 367.75 C-496.92 363.53 -495.38 361.49 -493 358 C-492.6 356.01 -492.28 354.01 -492 352 C-490.57 346.87 -488.78 342.54 -486 338 C-485.66 336.33 -485.33 334.67 -485 333 C-484.02 330.99 -483.02 328.99 -482 327 C-481.47 325.36 -481.47 325.36 -480.94 323.69 C-480 321 -480 321 -478 320 C-477.61 318.68 -477.29 317.34 -477 316 C-475.29 310.29 -475.29 310.29 -473 308 C-472.35 305.43 -472.35 305.43 -472 303 C-471.34 303 -470.68 303 -470 303 C-469.88 302.28 -469.75 301.56 -469.62 300.81 C-469.01 298.04 -468.12 295.6 -467 293 C-466.34 293 -465.68 293 -465 293 C-464.9 292.26 -464.79 291.51 -464.69 290.75 C-463.94 287.76 -462.84 286.42 -461 284 C-460.28 282.02 -459.6 280.02 -459 278 C-458.34 278 -457.68 278 -457 278 C-456.9 277.26 -456.79 276.51 -456.69 275.75 C-455.95 272.8 -454.88 271.35 -453 269 C-452.67 268.01 -452.34 267.02 -452 266 C-451.34 266 -450.68 266 -450 266 C-449.86 265.38 -449.71 264.76 -449.56 264.12 C-449 262 -449 262 -448 260 C-447.33 258.34 -446.66 256.67 -446 255 C-445.34 255 -444.68 255 -444 255 C-443.63 253.64 -443.63 253.64 -443.25 252.25 C-441.92 248.79 -440.57 247.57 -438 245 C-436.82 242.71 -435.93 240.41 -435 238 C-434.34 238 -433.68 238 -433 238 C-432.73 237.24 -432.46 236.47 -432.19 235.69 C-431.01 233.02 -430.01 232.01 -428 230 C-427.53 229.03 -427.05 228.06 -426.56 227.06 C-425 224.01 -423.43 222.36 -421 220 C-419.98 218.34 -418.98 216.68 -418 215 C-416.68 213.32 -415.35 211.65 -414 210 C-413.34 209.01 -412.68 208.02 -412 207 C-410.87 205.43 -409.72 203.86 -408.56 202.31 C-407.97 201.5 -407.37 200.7 -406.75 199.86 C-406.18 199.25 -405.6 198.63 -405 198 C-404.01 198 -403.02 198 -402 198 C-401.94 197.28 -401.87 196.56 -401.81 195.82 C-400.74 192.09 -398.87 190.51 -396.06 187.88 C-393.34 185.3 -391.08 183.12 -389 180 C-387.34 177.5 -385.66 175.37 -383.69 173.12 C-383.11 172.47 -382.54 171.81 -381.95 171.13 C-379.7 168.68 -377.36 166.34 -375 164 C-373.69 162.67 -372.39 161.34 -371.08 160.01 C-369.66 158.57 -368.24 157.13 -366.81 155.69 C-366.09 154.95 -365.36 154.21 -364.62 153.44 C-363.93 152.74 -363.23 152.04 -362.52 151.32 C-361.89 150.69 -361.26 150.05 -360.62 149.39 C-359 148 -359 148 -357 148 C-357 147.34 -357 146.68 -357 146 C-355.12 143.88 -355.12 143.88 -353 142 C-352.34 142 -351.68 142 -351 142 C-350.67 141.01 -350.34 140.02 -350 139 C-349.34 139 -348.68 139 -348 139 C-347.67 138.01 -347.34 137.02 -347 136 C-345 134.99 -343 134 -341 133 C-338.5 130.78 -338.5 130.78 -336.19 128.25 C-331.75 123.67 -327.11 119.8 -322 116 C-320.67 114.92 -320.67 114.92 -319.31 113.81 C-317.21 112.17 -315.05 110.73 -312.81 109.28 C-309.51 106.95 -306.46 104.3 -303.37 101.71 C-301.08 100.06 -299.68 99.6 -297 99 C-295.31 97.35 -293.65 95.69 -292 94 C-291.01 93.67 -290.02 93.34 -289 93 C-288.4 92.38 -287.8 91.76 -287.19 91.12 C-284.68 88.69 -282.13 87.53 -279 86 C-277.98 85.02 -276.98 84.02 -276 83 C-273.21 81.14 -270.4 79.72 -267.31 78.44 C-263.99 77.24 -263.99 77.24 -262 75 C-261.01 75 -260.02 75 -259 75 C-259 74.34 -259 73.68 -259 73 C-258.42 72.92 -257.85 72.83 -257.25 72.75 C-254.88 72.17 -254.88 72.17 -253.4 70.21 C-250.09 67.16 -246.4 65.64 -242.31 63.81 C-235.01 60.47 -227.89 56.92 -220.87 53.01 C-216.65 50.7 -212.5 49.06 -207.89 47.71 C-205.8 47.07 -205.8 47.07 -204 45 C-202 44.33 -200 43.67 -198 43 C-197.2 42.48 -196.39 41.97 -195.56 41.44 C-193 40 -193 40 -189.62 39.56 C-186.05 39.01 -183.99 37.94 -180.96 36.05 C-177.91 34.42 -174.67 33.6 -171.33 32.71 C-169.05 32.02 -167.12 31.08 -165 30 C-162.67 29.31 -160.34 28.65 -158 28 C-156 27.34 -154 26.68 -152 26 C-152 25.67 -152 25.34 -152 25 C-151.36 24.88 -150.72 24.76 -150.06 24.63 C-144.95 23.64 -140 22.45 -135 21 C-133.5 20.66 -132 20.32 -130.5 20 C-125.69 18.96 -120.98 17.73 -116.36 16.03 C-111.5 14.54 -106.57 13.89 -101.54 13.14 C-97.4 12.5 -93.89 11.61 -90 10 C-87.46 9.66 -84.96 9.5 -82.4 9.34 C-79.98 9.13 -79.98 9.13 -77.95 7.96 C-75.64 6.82 -74.36 6.89 -71.81 7.06 C-67.26 7.16 -63.07 6.52 -58.62 5.62 C-39.46 1.9 -19.47 1.8 0 1 C0 0.67 0 0.34 0 0 Z M-436 241 C-435 243 -435 243 -435 243 Z M538 613 C538 615.31 538 617.62 538 620 C538.33 620 538.66 620 539 620 C539 617.69 539 615.38 539 613 C538.67 613 538.34 613 538 613 Z M537 620 C537 622.31 537 624.62 537 627 C537.33 627 537.66 627 538 627 C538 624.69 538 622.38 538 620 C537.67 620 537.34 620 537 620 Z M536 627 C537 630 537 630 537 630 Z M535 630 C535 632.64 535 635.28 535 638 C535.33 638 535.66 638 536 638 C536 635.36 536 632.72 536 630 C535.67 630 535.34 630 535 630 Z M534 638 C534 639.65 534 641.3 534 643 C534.33 643 534.66 643 535 643 C535 641.35 535 639.7 535 638 C534.67 638 534.34 638 534 638 Z M533 643 C534 646 534 646 534 646 Z M532 646 C532 647.65 532 649.3 532 651 C532.33 651 532.66 651 533 651 C533 649.35 533 647.7 533 646 C532.67 646 532.34 646 532 646 Z M530 658 C531 661 531 661 531 661 Z M529 661 C530 665 530 665 530 665 Z M527 668 C528 671 528 671 528 671 Z " fill="#4F93DF" transform="translate(629,104)"/>
<path d="M0 0 C3.54 0.21 7.08 0.38 10.62 0.55 C74.32 3.86 143.21 18.83 191.45 63.2 C192.08 63.78 192.71 64.36 193.36 64.96 C203.87 74.76 212.48 85.26 220.45 97.2 C221.2 98.29 221.95 99.37 222.72 100.49 C242.77 131.05 245.7 164.56 245.91 199.97 C245.93 203.42 245.98 206.86 246.03 210.31 C246.11 214.5 246.14 218.69 246.15 222.89 C246.16 224.47 246.19 226.06 246.22 227.64 C246.44 237.93 245.21 244.97 238.45 253.2 C237.99 253.82 237.53 254.43 237.05 255.06 C193.12 312.03 118.06 334.71 49.77 343.69 C46.17 344.13 42.56 344.55 38.95 344.95 C37.92 345.07 36.88 345.18 35.81 345.3 C17.3 347.2 -1.33 347.41 -19.92 347.39 C-20.96 347.39 -22.01 347.39 -23.08 347.39 C-110.64 347.25 -202.04 330.48 -267.55 268.2 C-268.53 267.3 -268.53 267.3 -269.53 266.38 C-274.93 261.27 -279.38 255.34 -283.55 249.2 C-283.97 248.63 -284.4 248.06 -284.84 247.47 C-289.6 240.26 -289.22 232.85 -289.11 224.54 C-289.1 223.02 -289.1 221.5 -289.1 219.98 C-289.09 216.8 -289.07 213.62 -289.04 210.44 C-288.99 206.41 -288.98 202.38 -288.97 198.35 C-288.97 195.21 -288.95 192.07 -288.93 188.93 C-288.92 187.44 -288.92 185.96 -288.91 184.48 C-288.86 171.47 -287.85 158.62 -284.42 146.02 C-284.11 144.84 -284.11 144.84 -283.78 143.63 C-275.79 115.29 -260.89 91.28 -240.55 70.2 C-239.81 69.42 -239.08 68.63 -238.32 67.82 C-228.16 57.21 -215.96 49.17 -203.55 41.45 C-201.79 40.36 -200.05 39.24 -198.3 38.12 C-157.64 13.24 -106.27 4.83 -59.55 1.2 C-58.84 1.15 -58.12 1.09 -57.39 1.03 C-38.19 -0.44 -19.25 -1.15 0 0 Z " fill="#FAFDFF" transform="translate(660.548828125,638.796875)"/>
<path d="M0 0 C1.31 1.19 1.31 1.19 2.64 2.41 C25.18 23.73 40.76 55.46 42.16 86.57 C42.2 89.96 42.23 93.36 42.24 96.75 C42.25 98.9 42.28 101.05 42.31 103.21 C42.58 138.35 26.61 169.19 2.5 193.94 C-5.25 201.73 -13.76 208.08 -23 214 C-23.84 214.54 -24.68 215.08 -25.55 215.64 C-28.61 217.34 -31.76 218.66 -35 220 C-36.1 220.48 -37.2 220.97 -38.33 221.46 C-63.96 232.31 -94.98 235.04 -122 228 C-122.66 227.83 -123.32 227.66 -124 227.48 C-144.37 222.04 -163.07 211.79 -179 198 C-179.83 197.3 -180.66 196.61 -181.51 195.89 C-187.78 190.48 -192.99 184.57 -198 178 C-198.61 177.22 -199.21 176.44 -199.84 175.64 C-205.27 168.31 -209.2 160.26 -213 152 C-213.29 151.36 -213.59 150.73 -213.89 150.07 C-217.88 141.23 -220.19 132.59 -221.65 123.03 C-221.9 121.6 -222.19 120.17 -222.51 118.75 C-229.79 86.44 -219.46 52.62 -202.5 25.12 C-191.34 8.33 -177.23 -5.55 -160 -16 C-159.39 -16.37 -158.77 -16.74 -158.14 -17.13 C-107.98 -46.92 -42.26 -40.51 0 0 Z " fill="#FAFDFF" transform="translate(730,328)"/>
<path d="M0 0 C0.33 0 0.66 0 1 0 C1.19 6.5 1.18 11.83 -1 18 C-1.34 21.16 -1.56 24.32 -1.75 27.49 C-2 30 -2 30 -3 31 C-3.23 33.02 -3.41 35.04 -3.56 37.06 C-3.65 38.17 -3.73 39.27 -3.82 40.41 C-3.91 41.69 -3.91 41.69 -4 43 C-4.66 43 -5.32 43 -6 43 C-6.09 44.5 -6.09 44.5 -6.18 46.03 C-6.31 47.96 -6.31 47.96 -6.44 49.94 C-6.52 51.23 -6.6 52.51 -6.68 53.84 C-7 57 -7 57 -8 58 C-8.28 60.22 -8.45 62.44 -8.62 64.68 C-9 67 -9 67 -9.94 68.79 C-11.8 72.67 -12.17 77.02 -12.86 81.24 C-13.46 84.76 -13.99 86.98 -16 90 C-16.36 92.33 -16.7 94.66 -17 97 C-17.33 97.33 -17.66 97.66 -18 98 C-18.14 99.11 -18.29 100.23 -18.44 101.38 C-19 105 -19 105 -21 108 C-21.51 109.88 -21.96 111.78 -22.38 113.69 C-23.46 118.29 -24.88 122.05 -27.15 126.18 C-28.5 129.08 -28.74 131.83 -29 135 C-29.66 135 -30.32 135 -31 135 C-32.49 140.94 -32.49 140.94 -34 147 C-34.66 147 -35.32 147 -36 147 C-36.12 147.85 -36.25 148.69 -36.38 149.56 C-37.03 153.15 -37.95 156.51 -39 160 C-39.66 160 -40.32 160 -41 160 C-41.17 160.64 -41.34 161.28 -41.52 161.94 C-42.7 166.16 -43.85 170.05 -46.12 173.81 C-47.85 176.75 -48.42 178.72 -49 182 C-49.66 182.33 -50.32 182.66 -51 183 C-52.02 184.94 -52.02 184.94 -52.94 187.25 C-54.4 190.69 -56.05 193.81 -58 197 C-58.33 197.85 -58.66 198.69 -59 199.56 C-60 202 -60 202 -61.56 204.06 C-63.06 206.08 -63.56 207.55 -64 210 C-64.66 210 -65.32 210 -66 210 C-66.25 210.68 -66.49 211.36 -66.75 212.06 C-67.99 214.97 -69.45 217.57 -71.05 220.29 C-72.25 222.45 -73.16 224.68 -74 227 C-74.66 227 -75.32 227 -76 227 C-77.08 229.65 -78.09 232.28 -79 235 C-79.66 235 -80.32 235 -81 235 C-82.21 237.33 -83.17 239.5 -84 242 C-84.66 242 -85.32 242 -86 242 C-86.33 243.65 -86.66 245.3 -87 247 C-87.66 247 -88.32 247 -89 247 C-89 247.99 -89 248.98 -89 250 C-89.66 250 -90.32 250 -91 250 C-92.21 252.33 -93.17 254.5 -94 257 C-94.66 257 -95.32 257 -96 257 C-96.27 257.56 -96.54 258.11 -96.81 258.69 C-99.19 263.32 -102.03 267.58 -105.06 271.81 C-105.75 272.79 -106.45 273.76 -107.16 274.77 C-108.07 275.87 -108.07 275.87 -109 277 C-109.66 277 -110.32 277 -111 277 C-111.25 277.54 -111.49 278.07 -111.75 278.62 C-113.31 281.58 -115.03 284.3 -117 287 C-117.66 287 -118.32 287 -119 287 C-119.27 287.58 -119.54 288.15 -119.81 288.75 C-121.03 291.06 -122.3 293.02 -124 295 C-124.66 295 -125.32 295 -126 295 C-126.29 295.6 -126.58 296.2 -126.88 296.81 C-128 299 -128 299 -130 302 C-130.66 302 -131.32 302 -132 302 C-132.23 302.72 -132.45 303.44 -132.69 304.19 C-134.26 307.56 -136.21 309.56 -139 312 C-139.66 312 -140.32 312 -141 312 C-141.33 312.99 -141.66 313.98 -142 315 C-142.66 315 -143.32 315 -144 315 C-144 315.66 -144 316.32 -144 317 C-144.66 317 -145.32 317 -146 317 C-146.33 317.99 -146.66 318.98 -147 320 C-147.66 320 -148.32 320 -149 320 C-149 320.66 -149 321.32 -149 322 C-149.66 322 -150.32 322 -151 322 C-151.27 322.64 -151.54 323.28 -151.81 323.94 C-153 326 -153 326 -156 327 C-156.33 327.99 -156.66 328.98 -157 330 C-157.66 330 -158.32 330 -159 330 C-159 330.66 -159 331.32 -159 332 C-159.66 332 -160.32 332 -161 332 C-161.33 332.99 -161.66 333.98 -162 335 C-162.66 335 -163.32 335 -164 335 C-164 335.66 -164 336.32 -164 337 C-165.68 338.62 -165.68 338.62 -167.88 340.44 C-170.46 342.58 -172.11 344.17 -174 347 C-174.76 347.45 -175.53 347.91 -176.31 348.38 C-179.17 349.96 -179.17 349.96 -181.69 352.69 C-182.45 353.45 -183.21 354.21 -184 355 C-184.66 355 -185.32 355 -186 355 C-186 355.66 -186 356.32 -186 357 C-186.99 357 -187.98 357 -189 357 C-189 357.66 -189 358.32 -189 359 C-189.66 359 -190.32 359 -191 359 C-191.33 359.99 -191.66 360.98 -192 362 C-196.33 365 -196.33 365 -199 365 C-199 365.66 -199 366.32 -199 367 C-201.65 369.4 -204.11 371.48 -207.2 373.27 C-211.82 376.12 -216.02 379.54 -220.29 382.88 C-220.98 383.41 -221.67 383.94 -222.38 384.48 C-223.01 384.96 -223.63 385.45 -224.27 385.95 C-226 387 -226 387 -229 387 C-229 387.66 -229 388.32 -229 389 C-231.56 391.3 -232.48 392 -236 392 C-236 392.66 -236 393.32 -236 394 C-238.91 396.04 -240.4 397 -244 397 C-244 397.66 -244 398.32 -244 399 C-246.12 400.51 -246.12 400.51 -248.88 402.12 C-249.78 402.66 -250.68 403.2 -251.62 403.76 C-254 405 -254 405 -256 405 C-256 405.66 -256 406.32 -256 407 C-257.11 407.45 -258.23 407.91 -259.38 408.38 C-262.96 409.72 -262.96 409.72 -265 412 C-266.32 412 -267.64 412 -269 412 C-269 412.66 -269 413.32 -269 414 C-270.65 414.33 -272.3 414.66 -274 415 C-274 415.66 -274 416.32 -274 417 C-274.91 417.37 -275.82 417.74 -276.75 418.12 C-284.27 421.35 -291.52 425.14 -298.62 429.19 C-303.58 431.93 -308.52 433.64 -314 435 C-314 435.66 -314 436.32 -314 437 C-319.94 438.49 -319.94 438.49 -326 440 C-326 440.66 -326 441.32 -326 442 C-327.63 442.42 -329.26 442.85 -330.88 443.27 C-333.17 444 -333.17 444 -335.84 445.45 C-338.99 447 -342.01 448.02 -345.38 449 C-350.35 450.48 -355.16 452.13 -360 454 C-361.13 454.37 -362.27 454.74 -363.44 455.12 C-365.9 455.76 -365.9 455.76 -367 457 C-367.99 457.12 -368.98 457.25 -370 457.38 C-374.3 457.93 -380.84 458.84 -384 462 C-386.06 462.32 -388.12 462.51 -390.19 462.72 C-392.02 462.82 -392.02 462.82 -393 464 C-394.68 464.23 -396.37 464.41 -398.06 464.56 C-398.98 464.65 -399.9 464.73 -400.85 464.82 C-401.56 464.88 -402.27 464.94 -403 465 C-403 465.66 -403 466.32 -403 467 C-403.71 467.06 -404.42 467.12 -405.15 467.18 C-406.07 467.27 -406.99 467.35 -407.94 467.44 C-408.85 467.52 -409.77 467.6 -410.71 467.68 C-412.96 467.76 -412.96 467.76 -414 469 C-416.83 469.57 -419.68 470.03 -422.53 470.5 C-424.93 470.75 -424.93 470.75 -426 472 C-429.1 472.32 -432.2 472.51 -435.31 472.72 C-437.92 472.71 -437.92 472.71 -439 474 C-442.42 474.48 -445.84 474.87 -449.27 475.25 C-452.94 475.36 -452.94 475.36 -456 477 C-457.4 477.14 -458.81 477.23 -460.22 477.28 C-461.07 477.32 -461.92 477.36 -462.79 477.39 C-465.5 477.5 -465.5 477.5 -468.21 477.61 C-469.06 477.64 -469.91 477.68 -470.78 477.72 C-471.57 477.75 -472.35 477.78 -473.16 477.81 C-475.02 477.81 -475.02 477.81 -476 479 C-477.39 479.15 -478.79 479.23 -480.19 479.28 C-481.53 479.34 -481.53 479.34 -482.9 479.39 C-484.36 479.45 -484.36 479.45 -485.84 479.5 C-486.84 479.54 -487.84 479.58 -488.87 479.62 C-492.08 479.75 -495.29 479.88 -498.5 480 C-501.68 480.12 -504.86 480.25 -508.05 480.38 C-510.03 480.46 -512.01 480.53 -513.99 480.61 C-519.08 480.81 -524.08 481.18 -529.12 481.9 C-531 482 -531 482 -534 481 C-535.51 480.86 -537.03 480.78 -538.55 480.72 C-539.92 480.66 -539.92 480.66 -541.33 480.61 C-542.81 480.55 -542.81 480.55 -544.32 480.5 C-545.33 480.46 -546.35 480.42 -547.39 480.38 C-551.74 480.2 -556.09 480.04 -560.44 479.88 C-563.61 479.75 -566.78 479.63 -569.95 479.5 C-571.43 479.45 -571.43 479.45 -572.95 479.39 C-573.86 479.36 -574.77 479.32 -575.71 479.28 C-576.52 479.25 -577.32 479.22 -578.15 479.19 C-580 479 -580 479 -581 478 C-582.34 477.87 -583.69 477.8 -585.04 477.75 C-585.87 477.72 -586.7 477.69 -587.55 477.65 C-589.29 477.59 -591.03 477.54 -592.77 477.48 C-597.57 477.29 -601.45 476.67 -606 475 C-607.76 474.76 -609.54 474.56 -611.31 474.44 C-615.9 474.1 -615.9 474.1 -617 473 C-620.26 472.71 -623.53 472.55 -626.8 472.38 C-629.81 472.02 -631.39 471.41 -634 470 C-636.09 469.59 -636.09 469.59 -638.19 469.44 C-642 469 -642 469 -643 468 C-644.68 467.77 -646.37 467.59 -648.06 467.44 C-649.44 467.31 -649.44 467.31 -650.85 467.18 C-651.56 467.12 -652.27 467.06 -653 467 C-653 466.34 -653 465.68 -653 465 C-653.71 464.94 -654.42 464.88 -655.15 464.82 C-656.53 464.69 -656.53 464.69 -657.94 464.56 C-658.85 464.48 -659.77 464.4 -660.71 464.32 C-663 464 -663 464 -664 463 C-665.35 462.77 -666.7 462.59 -668.06 462.44 C-669.36 462.29 -670.66 462.15 -672 462 C-672 461.34 -672 460.68 -672 460 C-672.64 459.94 -673.28 459.88 -673.93 459.82 C-674.76 459.73 -675.59 459.65 -676.44 459.56 C-677.26 459.48 -678.08 459.4 -678.93 459.32 C-681 459 -681 459 -682 458 C-683.13 457.86 -684.27 457.71 -685.44 457.56 C-689 457 -689 457 -691 455 C-692.99 454.6 -694.99 454.26 -697 454 C-697 453.34 -697 452.68 -697 452 C-697.93 452.04 -698.86 452.08 -699.81 452.12 C-703 452 -703 452 -706 450 C-707.74 449.5 -709.49 449.04 -711.25 448.62 C-714.76 447.72 -717.73 446.78 -720.81 444.88 C-724.02 442.99 -726.33 442.36 -730 442 C-730 441.34 -730 440.68 -730 440 C-733.96 439.01 -737.92 438.02 -742 437 C-742 436.34 -742 435.68 -742 435 C-742.96 434.74 -742.96 434.74 -743.94 434.48 C-749.53 432.92 -754.03 430.98 -759 428 C-761.27 427.24 -761.27 427.24 -763 427 C-763 426.34 -763 425.68 -763 425 C-763.58 424.83 -764.16 424.66 -764.76 424.48 C-769.8 422.92 -773.64 421.03 -778 418 C-780.3 416.9 -782.63 415.96 -785 415 C-785.66 414.67 -786.32 414.34 -787 414 C-787 413.34 -787 412.68 -787 412 C-787.74 411.9 -788.49 411.79 -789.25 411.69 C-792.21 410.95 -793.62 409.84 -796 408 C-798.15 407.29 -798.15 407.29 -800 407 C-800 406.34 -800 405.68 -800 405 C-800.68 404.75 -801.36 404.51 -802.06 404.25 C-805.57 402.76 -808.72 400.93 -812 399 C-812 398.34 -812 397.68 -812 397 C-812.58 396.88 -813.15 396.75 -813.75 396.62 C-816.02 395.99 -817.93 395.11 -820 394 C-820 393.34 -820 392.68 -820 392 C-820.6 391.88 -821.2 391.75 -821.81 391.62 C-824 391 -824 391 -827 389 C-827 388.34 -827 387.68 -827 387 C-827.59 386.88 -828.18 386.76 -828.79 386.64 C-831.1 385.97 -832.47 385.15 -834.39 383.71 C-835.33 383.01 -835.33 383.01 -836.28 382.31 C-836.93 381.81 -837.58 381.32 -838.25 380.81 C-839.26 380.06 -839.26 380.06 -840.28 379.29 C-841.61 378.31 -842.93 377.31 -844.24 376.32 C-845.66 375.25 -847.09 374.2 -848.52 373.15 C-852.3 370.37 -855.87 367.44 -859.36 364.3 C-861.14 362.89 -862.94 361.95 -865 361 C-865 360.34 -865 359.68 -865 359 C-865.66 359 -866.32 359 -867 359 C-867 358.34 -867 357.68 -867 357 C-867.58 356.73 -868.15 356.46 -868.75 356.19 C-871.06 354.97 -873.02 353.7 -875 352 C-875 351.34 -875 350.68 -875 350 C-877.33 348.79 -879.5 347.83 -882 347 C-883.72 345.22 -883.72 345.22 -885.5 343.06 C-887.63 340.49 -889.18 338.88 -892 337 C-892 336.34 -892 335.68 -892 335 C-892.99 334.67 -893.98 334.34 -895 334 C-895 333.34 -895 332.68 -895 332 C-895.66 332 -896.32 332 -897 332 C-897 331.34 -897 330.68 -897 330 C-897.99 329.67 -898.98 329.34 -900 329 C-900 328.34 -900 327.68 -900 327 C-900.64 326.73 -901.28 326.46 -901.94 326.19 C-904 325 -904 325 -905 322 C-905.66 322 -906.32 322 -907 322 C-907 321.34 -907 320.68 -907 320 C-907.99 319.67 -908.98 319.34 -910 319 C-910 318.34 -910 317.68 -910 317 C-910.66 317 -911.32 317 -912 317 C-912 316.34 -912 315.68 -912 315 C-912.66 315 -913.32 315 -914 315 C-915.33 313.64 -915.33 313.64 -916.81 311.81 C-918.67 309.57 -920.5 307.5 -922.56 305.44 C-925.26 302.74 -927.66 300.01 -930 297 C-930 296.34 -930 295.68 -930 295 C-930.66 295 -931.32 295 -932 295 C-937 289.52 -937 289.52 -937 287 C-937.66 287 -938.32 287 -939 287 C-940.51 285.32 -940.51 285.32 -942.12 283.12 C-942.66 282.41 -943.2 281.69 -943.76 280.95 C-945 279 -945 279 -945 277 C-945.66 277 -946.32 277 -947 277 C-948.34 275.37 -949.6 273.66 -950.81 271.94 C-951.52 270.94 -952.23 269.94 -952.96 268.91 C-953.63 267.95 -954.31 266.99 -955 266 C-956 264.65 -957 263.29 -958 261.94 C-960 259 -960 259 -960 257 C-960.66 257 -961.32 257 -962 257 C-965 252.62 -965 252.62 -965 250 C-965.66 250 -966.32 250 -967 250 C-967 249.01 -967 248.02 -967 247 C-967.66 247 -968.32 247 -969 247 C-969.5 244.52 -969.5 244.52 -970 242 C-970.66 242 -971.32 242 -972 242 C-975 237.62 -975 237.62 -975 235 C-975.66 235 -976.32 235 -977 235 C-980 229.25 -980 229.25 -980 227 C-980.66 227 -981.32 227 -982 227 C-982.45 225.89 -982.91 224.77 -983.38 223.62 C-984.72 220.04 -984.72 220.04 -987 218 C-987 217.01 -987 216.02 -987 215 C-987.66 215 -988.32 215 -989 215 C-989.5 212.52 -989.5 212.52 -990 210 C-990.66 210 -991.32 210 -992 210 C-992.45 208.89 -992.91 207.77 -993.38 206.62 C-994.72 203.04 -994.72 203.04 -997 201 C-997.84 198.99 -998.52 196.94 -999.22 194.88 C-999.94 192.8 -999.94 192.8 -1002 191 C-1002 189.68 -1002 188.36 -1002 187 C-1002.66 187 -1003.32 187 -1004 187 C-1004.12 186.36 -1004.25 185.72 -1004.38 185.06 C-1004.58 184.38 -1004.79 183.7 -1005 183 C-1005.66 182.67 -1006.32 182.34 -1007 182 C-1007.71 180.21 -1007.71 180.21 -1008.38 177.94 C-1009.39 174.69 -1010.54 171.76 -1012.12 168.75 C-1013.65 165.85 -1014.59 163.29 -1015 160 C-1015.66 160 -1016.32 160 -1017 160 C-1017.51 158.4 -1018 156.79 -1018.5 155.19 C-1018.78 154.29 -1019.06 153.4 -1019.34 152.48 C-1020 150 -1020 150 -1020 147 C-1020.66 147 -1021.32 147 -1022 147 C-1022.99 143.04 -1023.98 139.08 -1025 135 C-1025.66 135 -1026.32 135 -1027 135 C-1027.19 134.17 -1027.39 133.34 -1027.59 132.48 C-1027.85 131.39 -1028.11 130.31 -1028.38 129.19 C-1028.63 128.11 -1028.89 127.03 -1029.15 125.92 C-1029.89 122.84 -1029.89 122.84 -1032 120 C-1032.85 116.96 -1033.52 113.89 -1034.22 110.81 C-1034.89 107.83 -1034.89 107.83 -1037 105 C-1037.36 102.67 -1037.69 100.34 -1038 98 C-1039.09 93.49 -1039.09 93.49 -1040.97 89.29 C-1042.73 85.36 -1043.16 81.07 -1043.86 76.84 C-1044.49 73.21 -1045.29 70.25 -1047 67 C-1047.38 64.68 -1047.38 64.68 -1047.56 62.31 C-1047.6 59.36 -1047.6 59.36 -1049 57 C-1049.24 54.65 -1049.41 52.29 -1049.56 49.94 C-1049.65 48.65 -1049.73 47.36 -1049.82 46.03 C-1049.88 45.03 -1049.94 44.03 -1050 43 C-1050.66 43 -1051.32 43 -1052 43 C-1052.06 42.15 -1052.12 41.29 -1052.18 40.41 C-1052.27 39.31 -1052.35 38.2 -1052.44 37.06 C-1052.52 35.96 -1052.6 34.86 -1052.68 33.72 C-1052.7 31.09 -1052.7 31.09 -1054 30 C-1054.07 28.31 -1054.08 26.62 -1054.06 24.94 C-1054.05 24.02 -1054.04 23.1 -1054.04 22.15 C-1054.02 21.44 -1054.01 20.73 -1054 20 C-1051.75 22.25 -1051.66 22.92 -1051.22 25.96 C-1051.1 26.74 -1050.98 27.52 -1050.86 28.33 C-1050.74 29.15 -1050.62 29.97 -1050.5 30.81 C-1049.77 35.85 -1048.97 40.28 -1047 45 C-1046.5 47.39 -1046.05 49.79 -1045.62 52.19 C-1044.63 57.54 -1043.22 62.35 -1041.04 67.34 C-1039.49 71.31 -1038.49 75.41 -1037.43 79.52 C-1036.17 84.44 -1034.68 89.22 -1033 94 C-1032.69 94.94 -1032.38 95.88 -1032.07 96.85 C-1030.98 100.06 -1029.79 103.21 -1028.56 106.38 C-1027.14 110.03 -1025.73 113.69 -1024.38 117.38 C-1023.45 119.81 -1022.47 122.23 -1021.44 124.62 C-1019.43 129.35 -1017.89 133.94 -1017 139 C-1016.34 139 -1015.68 139 -1015 139 C-1015 140.65 -1015 142.3 -1015 144 C-1014.34 144 -1013.68 144 -1013 144 C-1012.65 144.93 -1012.65 144.93 -1012.3 145.87 C-1010.26 151.17 -1007.94 156.05 -1005.09 160.96 C-1003.71 163.54 -1002.92 166.23 -1002 169 C-1000.54 170.63 -1000.54 170.63 -999 172 C-998.31 173.32 -997.65 174.66 -997 176 C-995.16 179.37 -993.31 182.74 -991.46 186.1 C-990 189 -990 189 -990 191 C-989.34 191 -988.68 191 -988 191 C-987.67 192.98 -987.34 194.96 -987 197 C-986.34 197 -985.68 197 -985 197 C-982.96 199.91 -982 201.4 -982 205 C-981.34 205 -980.68 205 -980 205 C-978.56 207.08 -978.56 207.08 -977 209.81 C-975.39 212.6 -973.79 215.32 -972 218 C-972 218.99 -972 219.98 -972 221 C-970.02 221.99 -970.02 221.99 -968 223 C-968 223.99 -968 224.98 -968 226 C-967.01 226.33 -966.02 226.66 -965 227 C-963.94 228.63 -962.95 230.3 -962 232 C-961.44 232.7 -960.89 233.4 -960.31 234.12 C-959 236 -959 236 -959 239 C-958.38 239.25 -957.76 239.5 -957.12 239.75 C-954.58 241.25 -954.04 242.28 -953 245 C-952.9 245.7 -952.79 246.4 -952.69 247.12 C-952.46 247.74 -952.23 248.36 -952 249 C-951.26 249.27 -950.51 249.54 -949.75 249.81 C-945.84 251.5 -944.1 254.38 -942 258 C-941.5 259.49 -941.5 259.49 -941 261 C-939.36 262.69 -937.69 264.35 -936 266 C-933.21 269.12 -930.53 272.33 -927.94 275.62 C-925.77 278.28 -923.45 280.61 -921 283 C-919.71 284.27 -918.41 285.54 -917.12 286.81 C-916.51 287.42 -915.89 288.02 -915.26 288.64 C-913.34 290.64 -911.55 292.68 -909.75 294.78 C-906.04 299.05 -902.03 302.91 -897.88 306.75 C-897.19 307.4 -896.5 308.04 -895.79 308.71 C-892.29 311.96 -888.75 315.05 -885 318 C-883.33 319.67 -881.67 321.33 -880 323 C-873.65 328.93 -867.15 334.37 -860.05 339.37 C-855.22 342.78 -855.22 342.78 -853.52 344.48 C-851.93 346.07 -850.29 347.31 -848.45 348.6 C-847.75 349.09 -847.06 349.57 -846.35 350.07 C-845.62 350.58 -844.88 351.1 -844.12 351.62 C-843.36 352.16 -842.6 352.69 -841.81 353.24 C-839.55 354.83 -837.27 356.42 -835 358 C-833.84 358.81 -832.68 359.62 -831.52 360.44 C-828.35 362.64 -825.18 364.82 -822 367 C-821.12 367.61 -821.12 367.61 -820.21 368.23 C-811.36 374.28 -802.36 379.78 -793 385 C-791.83 385.67 -790.67 386.35 -789.5 387.03 C-781.49 391.69 -773.33 395.92 -765 400 C-763.21 400.89 -761.42 401.79 -759.62 402.69 C-758.83 403.08 -758.04 403.48 -757.23 403.88 C-755.8 404.6 -754.38 405.32 -752.96 406.05 C-748.62 408.28 -744.22 410.17 -739.68 411.94 C-736.89 413.04 -734.13 414.2 -731.38 415.38 C-723.99 418.46 -716.51 421.25 -709 424 C-707.98 424.37 -707.98 424.37 -706.95 424.75 C-688.18 431.63 -669.15 436.87 -649.68 441.38 C-647.47 441.89 -645.26 442.41 -643.05 442.94 C-631.51 445.66 -619.96 448.01 -608.19 449.46 C-605.1 449.85 -602.02 450.29 -598.94 450.75 C-586.85 452.55 -574.91 453.55 -562.69 453.84 C-560.39 453.98 -558.15 454.22 -555.86 454.5 C-550.68 455.1 -545.55 455.14 -540.34 455.13 C-538.86 455.13 -538.86 455.13 -537.34 455.14 C-535.26 455.14 -533.19 455.13 -531.11 455.13 C-527.94 455.13 -524.78 455.13 -521.62 455.14 C-519.59 455.14 -517.56 455.13 -515.53 455.13 C-514.12 455.14 -514.12 455.14 -512.69 455.14 C-507.36 455.12 -502.28 454.73 -497 454 C-495.33 453.9 -493.67 453.83 -492 453.79 C-479.03 453.41 -466.37 452.24 -453.54 450.37 C-451.2 450.03 -448.86 449.71 -446.52 449.39 C-440.58 448.82 -440.58 448.82 -435 447 C-433.05 446.68 -431.09 446.39 -429.12 446.12 C-423.59 445.31 -418.28 444.13 -412.88 442.71 C-410.19 442.05 -407.54 441.56 -404.81 441.12 C-398.57 440.04 -392.58 438.19 -386.52 436.35 C-382.8 435.23 -379.06 434.18 -375.3 433.17 C-362.15 429.61 -349.18 425.56 -336.66 420.15 C-334.1 419.04 -331.53 418.01 -328.94 417 C-324.45 415.22 -320.08 413.23 -315.7 411.21 C-313.26 410.12 -310.81 409.14 -308.31 408.19 C-300.97 405.29 -294.01 401.6 -287 398 C-286.05 397.51 -285.09 397.03 -284.11 396.53 C-281.01 394.94 -277.91 393.35 -274.81 391.75 C-273.82 391.24 -272.83 390.74 -271.81 390.21 C-267.14 387.79 -263.05 385.38 -259 382 C-257.13 381.01 -255.23 380.08 -253.31 379.19 C-248.34 376.77 -243.95 374.03 -239.48 370.77 C-236.95 368.96 -234.34 367.32 -231.69 365.69 C-226.27 362.28 -221.25 358.44 -216.22 354.5 C-212.35 351.47 -208.35 348.63 -204.34 345.79 C-202.01 344.01 -200.02 342.11 -198 340 C-197.34 339.34 -196.68 338.68 -196 338 C-195.34 338 -194.68 338 -194 338 C-191.77 336.23 -189.63 334.44 -187.5 332.56 C-186.87 332.02 -186.24 331.47 -185.6 330.91 C-181.18 327.07 -176.81 323.17 -172.48 319.23 C-170.41 317.37 -168.32 315.53 -166.21 313.7 C-162.05 310.07 -157.98 306.34 -153.94 302.56 C-153.27 301.95 -152.6 301.33 -151.91 300.69 C-147.91 296.95 -144.21 293.07 -140.65 288.91 C-138.22 286.09 -135.67 283.4 -133.12 280.69 C-127.83 274.99 -122.85 269.09 -118 263 C-117.35 262.19 -116.69 261.38 -116.02 260.55 C-107.36 249.82 -99.06 238.86 -91.12 227.59 C-90.11 226.15 -89.08 224.72 -88.06 223.28 C-84.44 218.18 -81.03 212.97 -77.7 207.68 C-75.63 204.42 -73.46 201.24 -71.26 198.07 C-69.91 195.99 -69.91 195.99 -69 193.48 C-68.02 191.05 -66.91 189.29 -65.38 187.19 C-62.17 182.49 -59.67 177.53 -57.18 172.44 C-54.67 167.31 -52.02 162.27 -49.31 157.25 C-45.78 150.65 -42.71 143.99 -40 137 C-39.31 135.29 -38.63 133.58 -37.94 131.88 C-37.29 130.25 -36.65 128.63 -36 127 C-35.71 126.27 -35.41 125.54 -35.11 124.79 C-28.41 108.14 -22.28 91.51 -17.19 74.29 C-15.77 69.48 -14.26 64.71 -12.62 59.97 C-11.8 57.35 -11.35 54.72 -11 52 C-10.34 52 -9.68 52 -9 52 C-9.03 51.38 -9.07 50.77 -9.11 50.13 C-9.15 48.86 -9.15 48.86 -9.19 47.56 C-9.22 46.74 -9.26 45.92 -9.29 45.07 C-8.96 41.57 -7.95 38.68 -6.79 35.38 C-5.53 31.59 -4.73 27.72 -3.94 23.81 C-3.68 22.59 -3.68 22.59 -3.42 21.34 C-1.99 14.26 -0.89 7.17 0 0 Z " fill="#000204" transform="translate(1168,717)"/>
<path d="M0 0 C2.36 2.92 4.54 5.79 6.5 9 C21.75 32.07 46.37 48.65 70 62 C71.2 62.68 71.2 62.68 72.42 63.37 C84.22 69.97 96.3 75.36 109 80 C109.9 80.33 110.81 80.66 111.74 81.01 C160.27 98.64 212.51 104.24 263.88 104.13 C266.93 104.13 269.98 104.13 273.03 104.14 C292.07 104.15 310.97 103.55 329.88 101.19 C330.6 101.1 331.32 101.01 332.06 100.92 C372.07 96.03 412.64 88.1 449 70 C450.16 69.43 450.16 69.43 451.34 68.84 C462.44 63.33 472.92 57.22 483 50 C483.66 49.53 484.32 49.06 485 48.57 C494.24 41.93 502.81 34.9 511 27 C512.01 26.05 512.01 26.05 513.05 25.07 C520.12 18.27 525.49 10.48 530.52 2.09 C531.25 1.06 531.25 1.06 532 0 C532.66 0 533.32 0 534 0 C534.12 4 534.19 8 534.25 12 C534.28 13.13 534.32 14.25 534.35 15.41 C534.43 22.32 533.91 27.24 530 33 C529.27 34.07 528.55 35.14 527.8 36.25 C526.98 37.32 526.15 38.38 525.31 39.44 C524.85 40.02 524.39 40.61 523.91 41.21 C497.51 73.65 461.05 95.2 422 109 C421.06 109.34 420.12 109.68 419.15 110.03 C370.65 127.24 318.9 132.24 267.75 132.19 C266.61 132.19 265.46 132.19 264.28 132.19 C182.19 132.07 92.78 117.79 29.49 61.31 C28.16 60.14 26.81 59 25.45 57.86 C15.49 49.41 5.88 37.76 0 26 C-0.09 24.04 -0.11 22.08 -0.1 20.12 C-0.09 18.95 -0.09 17.78 -0.09 16.58 C-0.08 15.36 -0.07 14.14 -0.06 12.88 C-0.06 11.64 -0.05 10.41 -0.05 9.14 C-0.04 6.1 -0.02 3.05 0 0 Z " fill="#3F75B3" transform="translate(373,881)"/>
<path d="M0 0 C0.33 0 0.66 0 1 0 C1.15 0.98 1.29 1.96 1.45 2.97 C3.06 12.95 5.79 21.8 10 31 C10.3 31.66 10.59 32.31 10.9 32.98 C21.27 55.72 36.85 72.71 57.32 86.83 C58.78 87.85 60.23 88.88 61.68 89.91 C82.24 103.94 107.27 109.42 131.81 109.31 C133.13 109.31 134.44 109.3 135.79 109.3 C153.88 109.08 171.85 105.77 187.92 97.11 C190 96 190 96 193.38 94.69 C223 80.9 245.8 51.87 256.88 21.69 C259.14 14.86 261.11 7.94 263 1 C265.11 4.42 265.13 6.71 264.71 10.66 C264.6 11.78 264.48 12.89 264.36 14.04 C264.22 15.22 264.08 16.41 263.94 17.62 C263.8 18.84 263.65 20.06 263.51 21.31 C259.81 50.67 247.36 75.5 227 97 C226.34 97.7 225.68 98.4 225 99.12 C201.98 122.89 169.77 135.52 137 137 C136.15 137.04 135.29 137.08 134.41 137.12 C98.86 137.98 64.3 123.76 38.62 99.52 C37.07 98.03 35.53 96.52 34 95 C33.11 94.13 32.23 93.25 31.32 92.36 C12.37 72.64 1.13 45.17 -1.5 18.19 C-1.59 17.29 -1.68 16.39 -1.77 15.46 C-2.2 9.84 -1.65 5.39 0 0 Z " fill="#3F75B3" transform="translate(508,449)"/>
<path d="M0 0 C0.33 0 0.66 0 1 0 C1.03 2.23 1.05 4.46 1.06 6.69 C1.07 7.93 1.09 9.17 1.1 10.45 C1.01 13.46 0.71 16.08 0 19 C-0.33 19 -0.66 19 -1 19 C-0.67 12.73 -0.34 6.46 0 0 Z " fill="#000204" transform="translate(1170,698)"/>
<path d="M0 0 C0.33 0 0.66 0 1 0 C1 5.28 1 10.56 1 16 C0.67 16 0.34 16 0 16 C0 10.72 0 5.44 0 0 Z " fill="#000204" transform="translate(1172,678)"/>
<path d="M0 0 C0.33 0 0.66 0 1 0 C1 1.98 1 3.96 1 6 C0.67 6 0.34 6 0 6 C0 4.02 0 2.04 0 0 Z " fill="#446E4A" transform="translate(1170,573)"/>
<path d="M0 0 C1 4 1 4 1 4 Z " fill="#000204" transform="translate(1171,694)"/>
<path d="" fill="#5094E0" transform="translate(0,0)"/>
<path d="" fill="#446E4A" transform="translate(0,0)"/>
<path d="" fill="#5094E0" transform="translate(0,0)"/>
<path d="M0 0 C2 1 2 1 2 1 Z " fill="#5094E0" transform="translate(511,119)"/>
<path d="M0 0 C2 1 2 1 2 1 Z " fill="#5094E0" transform="translate(656,104)"/>
<path d="M0 0 C2 1 2 1 2 1 Z " fill="#5094E0" transform="translate(651,104)"/>
<path d="M0 0 C2 1 2 1 2 1 Z " fill="#5094E0" transform="translate(626,104)"/>
<path d="M0 0 C2 1 2 1 2 1 Z " fill="#5094E0" transform="translate(623,104)"/>
<path d="M0 0 C2 1 2 1 2 1 Z " fill="#5094E0" transform="translate(618,104)"/>
<path d="" fill="#446E4A" transform="translate(0,0)"/>
<path d="" fill="#446E4A" transform="translate(0,0)"/>
<path d="" fill="#5094E0" transform="translate(0,0)"/>
<path d="" fill="#5094E0" transform="translate(0,0)"/>
<path d="" fill="#446E4A" transform="translate(0,0)"/>
<path d="" fill="#5094E0" transform="translate(0,0)"/>
<path d="" fill="#5094E0" transform="translate(0,0)"/>
<path d="" fill="#5094E0" transform="translate(0,0)"/>
<path d="" fill="#5094E0" transform="translate(0,0)"/>
<path d="" fill="#5094E0" transform="translate(0,0)"/>
<path d="" fill="#5094E0" transform="translate(0,0)"/>
<path d="" fill="#5094E0" transform="translate(0,0)"/>
<path d="" fill="#5094E0" transform="translate(0,0)"/>
<path d="" fill="#5094E0" transform="translate(0,0)"/>
<path d="" fill="#5094E0" transform="translate(0,0)"/>
<path d="" fill="#5094E0" transform="translate(0,0)"/>
<path d="" fill="#5094E0" transform="translate(0,0)"/>
<path d="" fill="#5094E0" transform="translate(0,0)"/>
<path d="" fill="#5094E0" transform="translate(0,0)"/>
<path d="" fill="#5094E0" transform="translate(0,0)"/>
<path d="" fill="#5094E0" transform="translate(0,0)"/>
</svg>
