<?xml version="1.0" standalone="no"?>
<!DOCTYPE svg PUBLIC "-//W3C//DTD SVG 20010904//EN"
 "http://www.w3.org/TR/2001/REC-SVG-20010904/DTD/svg10.dtd">
<svg version="1.0" xmlns="http://www.w3.org/2000/svg"
 width="900.000000pt" height="900.000000pt" viewBox="0 0 900.000000 900.000000"
 preserveAspectRatio="xMidYMid meet">

<g transform="translate(0.000000,900.000000) scale(0.100000,-0.100000)"
fill="#000000" stroke="none">
<path d="M2620 4500 l0 -3000 2768 2 2767 3 67 33 c82 40 157 119 190 200 l23
57 0 2705 0 2705 -23 57 c-33 81 -108 160 -190 200 l-67 33 -2767 3 -2768 2 0
-3000z m4690 1970 l0 -460 -1777 0 -1778 0 3 460 2 460 1775 0 1775 0 0 -460z
m-3675 -1049 c74 -34 115 -95 115 -171 0 -76 -41 -137 -115 -171 -140 -65
-298 72 -254 220 33 112 153 169 254 122z m1341 -11 c113 -70 111 -251 -3
-322 -53 -32 -143 -32 -196 0 -134 84 -108 294 42 343 40 13 119 2 157 -21z
m1291 9 c82 -40 125 -128 102 -212 -40 -150 -214 -195 -318 -82 -87 94 -61
233 53 290 61 31 106 32 163 4z m1301 6 c49 -21 81 -52 103 -100 45 -96 -1
-207 -103 -250 -47 -19 -89 -19 -136 0 -157 66 -161 275 -7 346 49 23 94 24
143 4z m-3843 -960 c287 -140 284 -545 -5 -684 -49 -23 -66 -26 -160 -25 -131
0 -177 19 -264 107 -81 80 -108 147 -109 265 0 75 3 89 37 156 37 76 112 157
166 179 87 35 99 37 186 34 75 -2 100 -7 149 -32z m1323 -4 c75 -41 135 -103
170 -179 24 -50 27 -70 27 -157 0 -93 -2 -105 -32 -166 -39 -79 -102 -140
-181 -177 -50 -24 -70 -27 -157 -27 -87 0 -107 3 -157 27 -76 35 -138 95 -179
170 -33 60 -34 68 -34 168 0 118 16 168 80 246 44 53 82 81 154 111 48 20 69
23 151 20 85 -2 101 -6 158 -36z m1298 6 c73 -34 141 -100 181 -177 26 -51 28
-64 28 -165 0 -103 -2 -114 -30 -169 -34 -67 -109 -140 -181 -176 -43 -22 -62
-25 -154 -25 -96 0 -110 3 -165 29 -171 84 -252 271 -196 454 35 116 118 203
234 244 79 28 203 21 283 -15z m1314 0 c286 -138 289 -538 4 -682 -54 -28 -67
-30 -164 -30 -95 0 -111 3 -162 28 -115 56 -202 179 -214 303 -18 170 88 339
249 396 78 28 213 21 287 -15z"/>
<path d="M1510 5809 c-136 -22 -280 -132 -340 -261 -67 -144 -65 -281 8 -427
53 -107 196 -214 320 -240 260 -54 517 124 562 390 43 253 -140 502 -397 539
-77 11 -78 11 -153 -1z m190 -313 c74 -49 100 -147 61 -232 -50 -110 -200
-140 -290 -58 -51 45 -64 81 -59 154 5 68 37 119 98 152 51 28 135 21 190 -16z"/>
</g>
</svg>
